<?xml version="1.0" encoding="UTF-8" standalone="no"?>
<!-- Created with Inkscape (http://www.inkscape.org/) -->

<svg
   xmlns:dc="http://purl.org/dc/elements/1.1/"
   xmlns:cc="http://creativecommons.org/ns#"
   xmlns:rdf="http://www.w3.org/1999/02/22-rdf-syntax-ns#"
   xmlns:svg="http://www.w3.org/2000/svg"
   xmlns="http://www.w3.org/2000/svg"
   xmlns:sodipodi="http://sodipodi.sourceforge.net/DTD/sodipodi-0.dtd"
   xmlns:inkscape="http://www.inkscape.org/namespaces/inkscape"
   width="140"
   height="64"
   viewBox="0 0 37.041666 16.933334"
   version="1.1"
   id="svg8"
   inkscape:version="0.92.4 (5da689c313, 2019-01-14)"
   sodipodi:docname="client-logo-04.svg">
  <defs
     id="defs2" />
  <sodipodi:namedview
     id="base"
     pagecolor="#ffffff"
     bordercolor="#666666"
     borderopacity="1.0"
     inkscape:pageopacity="0.0"
     inkscape:pageshadow="2"
     inkscape:zoom="2.8"
     inkscape:cx="53.983379"
     inkscape:cy="20.737863"
     inkscape:document-units="px"
     inkscape:current-layer="layer1"
     showgrid="false"
     units="px"
     inkscape:window-width="1366"
     inkscape:window-height="705"
     inkscape:window-x="-8"
     inkscape:window-y="-8"
     inkscape:window-maximized="1" />
  <metadata
     id="metadata5">
    <rdf:RDF>
      <cc:Work
         rdf:about="">
        <dc:format>image/svg+xml</dc:format>
        <dc:type
           rdf:resource="http://purl.org/dc/dcmitype/StillImage" />
        <dc:title />
      </cc:Work>
    </rdf:RDF>
  </metadata>
  <g
     inkscape:label="Layer 1"
     inkscape:groupmode="layer"
     id="layer1"
     transform="translate(0,-280.06665)">
    <g
       aria-label="Botched"
       style="font-style:normal;font-variant:normal;font-weight:bold;font-stretch:normal;font-size:11.55894184px;line-height:1.25;font-family:'Script MT Bold';-inkscape-font-specification:'Script MT Bold, Bold';letter-spacing:0px;word-spacing:0px;fill:#000000;fill-opacity:1;stroke:none;stroke-width:0.28897354"
       id="text24">
      <path
         d="m 5.9149274,288.10154 q 0.6039096,0 0.8804663,-0.47409 0.2765567,-0.47974 0.2765567,-1.04415 0,-0.77887 -0.5192493,-1.24168 -0.5136054,-0.46845 -1.3884276,-0.46845 -1.173955,0 -2.1108615,0.68292 -0.9369064,0.67729 -0.9369064,1.50131 0,0.49103 0.5305374,0.71679 0.1354563,0.0564 0.1354563,0.10724 v 0.17496 q 0,0.12417 -0.4515211,0.31042 -0.4458772,0.18626 -0.5869775,0.18626 -0.2201166,0 -0.4458772,-0.35558 -0.2257606,-0.36121 -0.2257606,-0.74501 0,-0.67164 0.5474694,-1.40536 0.5531135,-0.73372 1.552104,-1.1796 1.0046346,-0.44587 2.302758,-0.44587 1.3884276,0 2.2463178,0.58133 0.8635342,0.58133 0.8635342,1.49002 0,1.35456 -1.9189649,1.85124 1.5069519,0.46845 1.5069519,1.84559 0,1.00463 -0.756298,1.72707 -0.7506539,0.71679 -1.8004406,0.71679 -0.4628092,0 -0.77323,-0.18625 -0.3104208,-0.18626 -0.3104208,-0.45153 0,-0.17496 0.1975405,-0.47409 0.1975405,-0.29914 0.3668609,-0.29914 0.2314046,0 0.2765567,0.54183 0.033864,0.42894 0.2652687,0.42894 0.378149,0 0.6659937,-0.84095 0.2934888,-0.84096 0.2934888,-1.69321 0,-1.03285 -0.7393659,-1.14573 z m 0.1862525,-2.18423 q -0.3273528,0.29349 -0.4966733,0.67164 -0.1636764,0.3725 -0.2934887,1.46744 -0.1241684,1.09494 -0.3160648,1.83995 -0.1918965,0.73937 -0.6716378,1.38278 -0.4740972,0.63778 -1.2078191,1.00464 -0.7280779,0.36122 -1.569036,0.36122 -0.75065399,0 -1.15137902,-0.31607 Q 1.5785918e-7,292.01285 1.5785918e-7,291.43151 q 0,-0.20883 0.0338640921408,-0.34993 0.26526868,-0.24269 0.63212963,-0.4233 0.36686092,-0.18625 0.49102922,-0.18625 0.2031846,0 0.2031846,0.31042 0,0.0508 -0.045152,0.35557 -0.045152,0.29914 -0.045152,0.36122 0,0.69421 0.5982656,0.69421 0.6039095,0 1.0497867,-0.78451 0.4458771,-0.79017 0.6377736,-2.35356 0.1975405,-1.56339 0.5418254,-2.15601 0.3499289,-0.59827 0.8804663,-0.91433 0.5305374,-0.32171 0.8240261,-0.32171 0.1467444,0 0.2991328,0.25398 z"
         style="font-style:normal;font-variant:normal;font-weight:bold;font-stretch:normal;font-family:'Script MT Bold';-inkscape-font-specification:'Script MT Bold,  Bold';stroke-width:0.28897354"
         id="path9" />
      <path
         d="m 13.799615,291.25655 q -0.287844,0.25398 -0.558757,0.36122 -0.270913,0.10159 -0.428945,0.10159 -0.406369,0 -0.807094,-0.31607 -0.812738,1.2304 -1.862525,1.2304 -0.6547056,0 -1.0610747,-0.49103 -0.406369,-0.49103 -0.406369,-1.30377 0,-1.28683 0.9143303,-2.20681 0.9143304,-0.92562 2.1842334,-0.92562 0.479741,0 0.699858,0.10724 0.225761,0.10159 0.276557,0.24269 0.0508,0.1411 0.0508,0.35558 0,1.05543 -0.57569,2.5906 0.287845,0.26527 0.60391,0.26527 0.378149,0 0.97077,-0.66035 z m -1.862524,-3.15501 q -0.08466,-0.0339 -0.242693,-0.0339 -0.733722,0 -1.151379,0.76759 -0.412013,0.76758 -0.412013,1.79479 0,0.57005 0.180608,0.88611 0.180609,0.31607 0.502318,0.31607 0.400725,0 0.869178,-0.73937 -0.530537,-0.66599 -0.530537,-1.43358 0,-0.90304 0.784518,-1.55775 z"
         style="font-style:normal;font-variant:normal;font-weight:bold;font-stretch:normal;font-family:'Script MT Bold';-inkscape-font-specification:'Script MT Bold,  Bold';stroke-width:0.28897354"
         id="path11" />
      <path
         d="m 17.039279,291.25655 q -0.711146,0.7055 -1.230395,1.04414 -0.519249,0.333 -0.987703,0.333 -0.485385,0 -0.790162,-0.40637 -0.299132,-0.41201 -0.299132,-1.07801 0,-0.58698 0.2822,-1.5521 l 0.248337,-0.85225 -0.434589,0.0226 0.180608,-0.88611 0.536182,-0.0226 0.530537,-1.76093 1.512596,-0.31042 -0.575689,1.96412 0.784518,-0.0452 -0.186253,0.86918 -0.874822,0.0677 -0.378149,1.26426 q -0.191897,0.66035 -0.191897,1.04979 0,0.26526 0.129813,0.43458 0.135456,0.16368 0.344285,0.16368 0.287844,0 0.570045,-0.18061 0.282201,-0.18625 0.82967,-0.76758 z"
         style="font-style:normal;font-variant:normal;font-weight:bold;font-stretch:normal;font-family:'Script MT Bold';-inkscape-font-specification:'Script MT Bold,  Bold';stroke-width:0.28897354"
         id="path13" />
      <path
         d="m 21.261003,291.25655 q -0.722433,0.71114 -1.326343,1.04414 -0.598266,0.333 -1.252971,0.333 -0.733722,0 -1.213463,-0.4741 -0.474098,-0.47974 -0.474098,-1.21346 0,-1.20218 0.874823,-2.2181 0.880466,-1.02157 1.902033,-1.02157 0.502317,0 0.818382,0.2822 0.316064,0.27656 0.316064,0.72244 0,0.15803 -0.06208,0.23705 -0.05644,0.079 -0.220116,0.15803 l -0.654706,0.31042 q -0.118524,0.0564 -0.174964,0.0564 -0.07902,0 -0.07902,-0.11288 0,-0.0452 0.03386,-0.29349 0.03386,-0.25398 0.03386,-0.31042 0,-0.24834 -0.107237,-0.40072 -0.101592,-0.15239 -0.276556,-0.15239 -0.412013,0 -0.756298,0.60955 -0.338641,0.60955 -0.338641,1.38843 0,0.67164 0.321709,1.07236 0.321708,0.40073 0.85789,0.40073 0.457165,0 0.85789,-0.25963 0.406369,-0.26527 0.919974,-0.80709 z"
         style="font-style:normal;font-variant:normal;font-weight:bold;font-stretch:normal;font-family:'Script MT Bold';-inkscape-font-specification:'Script MT Bold,  Bold';stroke-width:0.28897354"
         id="path15" />
      <path
         d="m 26.803424,291.25655 q -1.337631,1.38843 -2.201165,1.38843 -0.383793,0 -0.637774,-0.25963 -0.248337,-0.26527 -0.248337,-0.66599 0,-0.67728 0.51925,-1.90768 0.276557,-0.66599 0.276557,-0.86918 0,-0.2314 -0.220117,-0.2314 -0.225761,0 -0.654706,0.31042 -0.428945,0.30478 -0.903042,0.83531 -0.197541,1.0385 -0.197541,2.49466 l -1.258615,0.29349 q -0.07337,-0.59263 -0.07337,-1.28684 0,-1.68192 0.462809,-3.13243 0.462809,-1.45051 1.456156,-3.07599 0.739366,-0.29913 1.286835,-0.48538 0.553114,-0.1919 0.63213,-0.1919 0.146744,0 0.248337,0.23705 0.101592,0.23705 0.101592,0.59262 0,0.59827 -0.366861,1.32635 -0.366861,0.72243 -1.151379,1.74964 0.750654,-0.43459 0.99899,-0.54747 0.248337,-0.11288 0.507962,-0.11288 0.287845,0 0.462809,0.20883 0.180608,0.20318 0.180608,0.54183 0,0.50796 -0.406369,1.57468 -0.400725,1.06671 -0.400725,1.33763 0,0.12417 0.07337,0.22011 0.07902,0.096 0.180608,0.096 0.361217,0 1.331987,-1.08929 z m -3.911302,-2.31405 q 2.014914,-2.34226 2.014914,-3.45413 0,-0.33865 -0.186253,-0.33865 -0.310421,0 -0.88611,1.11188 -0.57569,1.11187 -0.942551,2.6809 z"
         style="font-style:normal;font-variant:normal;font-weight:bold;font-stretch:normal;font-family:'Script MT Bold';-inkscape-font-specification:'Script MT Bold,  Bold';stroke-width:0.28897354"
         id="path17" />
      <path
         d="m 31.013861,291.25655 q -0.71679,0.7055 -1.286836,1.04414 -0.570045,0.333 -1.258615,0.333 -0.767586,0 -1.241683,-0.49103 -0.468453,-0.49103 -0.468453,-1.29248 0,-1.19653 0.82967,-2.16166 0.82967,-0.97077 1.839948,-0.97077 0.524894,0 0.840959,0.27091 0.316064,0.27092 0.316064,0.71115 0,1.16831 -2.483366,1.89639 0.225761,1.10058 1.179599,1.10058 0.372505,0 0.711146,-0.19754 0.338641,-0.20318 1.021567,-0.89175 z m -2.957464,-1.04414 q 1.444868,-0.40637 1.444868,-1.50131 0,-0.54183 -0.395081,-0.54183 -0.372505,0 -0.711146,0.57005 -0.338641,0.5644 -0.338641,1.47309 z"
         style="font-style:normal;font-variant:normal;font-weight:bold;font-stretch:normal;font-family:'Script MT Bold';-inkscape-font-specification:'Script MT Bold,  Bold';stroke-width:0.28897354"
         id="path19" />
      <path
         d="m 37.041667,291.25655 q -0.812738,0.80709 -1.241683,1.09494 -0.423301,0.2822 -0.750654,0.2822 -0.400725,0 -0.637774,-0.38944 -0.231404,-0.38944 -0.237049,-1.14009 -0.462809,0.75065 -1.010278,1.14009 -0.541826,0.38944 -0.982059,0.38944 -0.479741,0 -0.846602,-0.45152 -0.366861,-0.45717 -0.366861,-1.06672 0,-1.25862 0.914331,-2.33098 0.919974,-1.07801 1.975405,-1.07801 0.293488,0 0.457165,0.0847 0.16932,0.0847 0.366861,0.28785 l 0.807094,-3.37512 q 0.987702,-0.23141 1.331987,-0.23141 0.112881,0 0.112881,0.0903 0,0.0621 -0.282201,1.16831 -1.128803,4.42491 -1.128803,5.33924 0,0.21447 0.0903,0.34428 0.0903,0.12981 0.237049,0.12981 0.361217,0 1.190887,-0.9369 z m -4.080623,0.29913 q 0.553114,0 1.032855,-0.93691 0.479741,-0.9369 0.479741,-1.75528 0,-0.333 -0.152388,-0.53054 -0.146745,-0.19754 -0.389437,-0.19754 -0.524893,0 -1.015923,0.98206 -0.491029,0.97641 -0.491029,1.76657 0,0.31042 0.1411,0.49103 0.146745,0.18061 0.395081,0.18061 z"
         style="font-style:normal;font-variant:normal;font-weight:bold;font-stretch:normal;font-family:'Script MT Bold';-inkscape-font-specification:'Script MT Bold,  Bold';stroke-width:0.28897354"
         id="path21" />
    </g>
  </g>
</svg>
