<?xml version="1.0" encoding="UTF-8" standalone="no"?>
<!-- Created with Inkscape (http://www.inkscape.org/) -->

<svg
   xmlns:dc="http://purl.org/dc/elements/1.1/"
   xmlns:cc="http://creativecommons.org/ns#"
   xmlns:rdf="http://www.w3.org/1999/02/22-rdf-syntax-ns#"
   xmlns:svg="http://www.w3.org/2000/svg"
   xmlns="http://www.w3.org/2000/svg"
   xmlns:sodipodi="http://sodipodi.sourceforge.net/DTD/sodipodi-0.dtd"
   xmlns:inkscape="http://www.inkscape.org/namespaces/inkscape"
   width="140"
   height="64"
   viewBox="0 0 37.041666 16.933334"
   version="1.1"
   id="svg8"
   inkscape:version="0.92.4 (5da689c313, 2019-01-14)"
   sodipodi:docname="client-logo-02.svg">
  <defs
     id="defs2" />
  <sodipodi:namedview
     id="base"
     pagecolor="#ffffff"
     bordercolor="#666666"
     borderopacity="1.0"
     inkscape:pageopacity="0.0"
     inkscape:pageshadow="2"
     inkscape:zoom="2.8"
     inkscape:cx="53.983379"
     inkscape:cy="20.737863"
     inkscape:document-units="px"
     inkscape:current-layer="layer1"
     showgrid="false"
     units="px"
     inkscape:window-width="1366"
     inkscape:window-height="705"
     inkscape:window-x="-8"
     inkscape:window-y="-8"
     inkscape:window-maximized="1" />
  <metadata
     id="metadata5">
    <rdf:RDF>
      <cc:Work
         rdf:about="">
        <dc:format>image/svg+xml</dc:format>
        <dc:type
           rdf:resource="http://purl.org/dc/dcmitype/StillImage" />
        <dc:title />
      </cc:Work>
    </rdf:RDF>
  </metadata>
  <g
     inkscape:label="Layer 1"
     inkscape:groupmode="layer"
     id="layer1"
     transform="translate(0,-280.06665)">
    <g
       id="g39">
      <g
         id="g29">
        <g
           aria-label="X Marks"
           style="font-style:italic;font-variant:normal;font-weight:bold;font-stretch:normal;font-size:10.86953354px;line-height:1.25;font-family:Calibri;-inkscape-font-specification:'Calibri Bold Italic';letter-spacing:0px;word-spacing:0px;fill:#000000;fill-opacity:1;stroke:none;stroke-width:0.27173835"
           id="text16">
          <path
             d="m 4.4914487,288.6262 1.0561705,2.99868 q 0.058381,0.19106 0.063689,0.30782 0.010615,0.11146 -0.063689,0.17515 -0.068996,0.0584 -0.2388325,0.0743 -0.1698365,0.0159 -0.4723577,0.0159 -0.2176029,0 -0.3449803,-0.0106 -0.1273773,-0.0106 -0.2016808,-0.0318 -0.068996,-0.0265 -0.1008404,-0.069 -0.026537,-0.0425 -0.047766,-0.10615 L 3.3079009,289.486 1.5458476,291.98047 q -0.047767,0.0637 -0.1008404,0.10615 -0.047767,0.0425 -0.1432995,0.069 -0.090226,0.0212 -0.2441399,0.0318 -0.14860695,0.0106 -0.38743947,0.0106 -0.28129164,0 -0.44051333,-0.0159 -0.15922168,-0.0159 -0.20698818,-0.0743 -0.04776651,-0.0584 0.0053074,-0.16984 0.0477665,-0.11145 0.18045124,-0.29721 L 2.4746407,288.61559 1.5140032,285.8239 q -0.058381,-0.18576 -0.068996,-0.29721 -0.00531,-0.11146 0.063689,-0.16984 0.074303,-0.0584 0.2441399,-0.0743 0.1698364,-0.0159 0.4670502,-0.0159 0.2282178,0 0.3555951,0.0106 0.1326848,0.0106 0.2069882,0.0371 0.074304,0.0265 0.1061478,0.0743 0.031844,0.0478 0.053074,0.12207 l 0.7271124,2.23972 1.6028316,-2.26625 q 0.042459,-0.0637 0.090226,-0.10615 0.053074,-0.0425 0.1379921,-0.0637 0.084918,-0.0265 0.2229104,-0.0371 0.1432995,-0.0106 0.3768246,-0.0106 0.286599,0 0.4511281,0.0159 0.1645291,0.0159 0.2122956,0.0743 0.053074,0.0584 0.00531,0.16984 -0.047767,0.11145 -0.1804513,0.29721 z"
             style="font-style:italic;font-variant:normal;font-weight:bold;font-stretch:normal;font-family:Calibri;-inkscape-font-specification:'Calibri Bold Italic';stroke-width:0.27173835"
             id="path9" />
          <path
             d="m 17.022195,291.98047 q -0.01592,0.0531 -0.04777,0.0955 -0.03184,0.0425 -0.111455,0.069 -0.0743,0.0265 -0.206988,0.0371 -0.132685,0.0159 -0.329058,0.0159 -0.206988,0 -0.334366,-0.0159 -0.127377,-0.0106 -0.196373,-0.0371 -0.069,-0.0265 -0.09023,-0.069 -0.01592,-0.0425 -0.0053,-0.0955 l 1.114552,-5.58868 h -0.01062 l -3.115438,5.58337 q -0.06369,0.13269 -0.249447,0.18045 -0.180451,0.0425 -0.514817,0.0425 -0.34498,0 -0.498894,-0.0584 -0.148607,-0.0637 -0.153915,-0.15391 l -0.806723,-5.5993 h -0.01061 l -1.119859,5.59399 q -0.01062,0.0531 -0.04777,0.0955 -0.03184,0.0425 -0.111455,0.069 -0.0743,0.0265 -0.2069887,0.0371 -0.1273773,0.0159 -0.3290581,0.0159 -0.2016808,0 -0.3290581,-0.0159 -0.1273774,-0.0106 -0.1963735,-0.0371 -0.068996,-0.0265 -0.090226,-0.069 -0.02123,-0.0425 -0.00531,-0.0955 l 1.2206994,-6.11942 q 0.02654,-0.13268 0.07961,-0.23883 0.05838,-0.10615 0.137992,-0.17515 0.08492,-0.0743 0.191066,-0.11145 0.106148,-0.0371 0.228218,-0.0371 h 0.870412 q 0.233525,0 0.398054,0.0425 0.164529,0.0371 0.270677,0.13268 0.106148,0.0955 0.159222,0.24945 0.05838,0.15391 0.07961,0.37152 l 0.663424,4.08669 h 0.02654 l 2.356481,-4.08669 q 0.106148,-0.20699 0.212295,-0.3556 0.106148,-0.15391 0.233526,-0.24945 0.132684,-0.10084 0.291906,-0.1433 0.159222,-0.0478 0.376825,-0.0478 h 0.987174 q 0.132685,0 0.228218,0.0371 0.09553,0.0371 0.148607,0.11145 0.05838,0.069 0.069,0.17515 0.01592,0.10084 -0.0053,0.23352 z"
             style="font-style:italic;font-variant:normal;font-weight:bold;font-stretch:normal;font-family:Calibri;-inkscape-font-specification:'Calibri Bold Italic';stroke-width:0.27173835"
             id="path11" />
          <path
             d="m 22.844401,291.99109 q -0.02123,0.11145 -0.169837,0.15922 -0.143299,0.0478 -0.46705,0.0478 -0.164529,0 -0.270677,-0.0106 -0.10084,-0.0106 -0.164529,-0.0318 -0.06369,-0.0265 -0.08492,-0.0637 -0.01592,-0.0425 -0.0053,-0.10084 l 0.148607,-0.75896 q -0.07961,0.16984 -0.254754,0.3609 -0.175144,0.18576 -0.413977,0.33967 -0.238832,0.15392 -0.530739,0.25476 -0.286599,0.10084 -0.594427,0.10084 -0.424592,0 -0.705883,-0.14861 -0.281292,-0.1486 -0.451128,-0.39805 -0.169837,-0.25476 -0.24414,-0.57851 -0.069,-0.32375 -0.069,-0.67934 0,-0.33437 0.06369,-0.72712 0.06369,-0.39805 0.196374,-0.7908 0.132685,-0.39274 0.339673,-0.75365 0.206988,-0.36621 0.493587,-0.6475 0.291906,-0.28129 0.663424,-0.44582 0.376824,-0.16983 0.849182,-0.16983 0.440513,0 0.780186,0.18575 0.339673,0.18046 0.594428,0.53074 l 0.08492,-0.41928 q 0.02123,-0.11146 0.164529,-0.15922 0.148607,-0.0478 0.472358,-0.0478 0.159221,0 0.265369,0.0159 0.106148,0.0106 0.164529,0.0371 0.06369,0.0212 0.08492,0.0637 0.02123,0.0372 0.01061,0.0902 z m -0.658117,-3.32243 q -0.185758,-0.29191 -0.413976,-0.43521 -0.22291,-0.1486 -0.520124,-0.1486 -0.222911,0 -0.408669,0.10614 -0.185759,0.10615 -0.329058,0.2866 -0.1433,0.17515 -0.254755,0.40867 -0.106148,0.23353 -0.180451,0.48828 -0.069,0.24945 -0.106148,0.50951 -0.03184,0.25476 -0.03184,0.47236 0,0.15922 0.02123,0.30252 0.02654,0.1433 0.09023,0.25476 0.06369,0.11145 0.169836,0.18045 0.106148,0.0637 0.270677,0.0637 0.233525,0 0.477665,-0.138 0.24414,-0.1433 0.456436,-0.38213 0.212295,-0.24414 0.371517,-0.56258 0.164529,-0.32375 0.238832,-0.68996 z"
             style="font-style:italic;font-variant:normal;font-weight:bold;font-stretch:normal;font-family:Calibri;-inkscape-font-specification:'Calibri Bold Italic';stroke-width:0.27173835"
             id="path13" />
          <path
             d="m 28.109332,287.17728 q 0,0.0371 -0.01061,0.13269 -0.01062,0.0955 -0.03185,0.22291 -0.02123,0.12738 -0.05307,0.26537 -0.03184,0.13268 -0.0743,0.24945 -0.03715,0.11676 -0.09023,0.19106 -0.04777,0.0743 -0.106148,0.0743 -0.04777,0 -0.09553,-0.0159 -0.04777,-0.0212 -0.106148,-0.0371 -0.05838,-0.0212 -0.127377,-0.0371 -0.069,-0.0212 -0.159222,-0.0212 -0.180451,0 -0.38744,0.13799 -0.20168,0.13799 -0.387439,0.36621 -0.185759,0.22291 -0.334365,0.52543 -0.1433,0.29722 -0.206989,0.62627 l -0.424591,2.12827 q -0.01062,0.0531 -0.05307,0.0955 -0.03715,0.0372 -0.12207,0.0637 -0.07961,0.0265 -0.212295,0.0371 -0.132685,0.0159 -0.323751,0.0159 -0.196373,0 -0.323751,-0.0159 -0.12207,-0.0106 -0.196373,-0.0371 -0.069,-0.0265 -0.09023,-0.0637 -0.02123,-0.0425 -0.01062,-0.0955 l 0.944716,-4.7395 q 0.01062,-0.0531 0.04777,-0.0902 0.03715,-0.0425 0.106148,-0.0637 0.0743,-0.0265 0.185759,-0.0371 0.116762,-0.0159 0.275984,-0.0159 0.164529,0 0.265369,0.0159 0.106148,0.0106 0.164529,0.0371 0.05838,0.0212 0.0743,0.0637 0.02123,0.0372 0.01061,0.0902 l -0.148607,0.75365 q 0.127377,-0.22822 0.291906,-0.41929 0.169837,-0.19106 0.355595,-0.32905 0.191066,-0.1433 0.392747,-0.22291 0.201681,-0.0796 0.398054,-0.0796 0.07961,0 0.159222,0.0106 0.08492,0.0106 0.153914,0.0265 0.0743,0.0159 0.127378,0.0425 0.05838,0.0212 0.09023,0.0478 0.03184,0.0319 0.03184,0.10084 z"
             style="font-style:italic;font-variant:normal;font-weight:bold;font-stretch:normal;font-family:Calibri;-inkscape-font-specification:'Calibri Bold Italic';stroke-width:0.27173835"
             id="path15" />
          <path
             d="m 33.177888,287.23036 q 0,0.0849 -0.0743,0.20168 -0.069,0.11145 -0.233525,0.2866 l -1.671828,1.57629 1.088015,2.28218 q 0.05307,0.12738 0.0743,0.22291 0.02123,0.0955 0.02123,0.14861 0,0.0637 -0.03715,0.11145 -0.03184,0.0478 -0.116763,0.0796 -0.07961,0.0319 -0.22291,0.0425 -0.137992,0.0159 -0.350288,0.0159 -0.212296,0 -0.34498,-0.0106 -0.127378,-0.0106 -0.201681,-0.0371 -0.069,-0.0265 -0.106148,-0.069 -0.03184,-0.0425 -0.04777,-0.10615 l -1.11986,-2.49447 -0.498894,2.50509 q -0.01592,0.0531 -0.05838,0.0955 -0.03715,0.0372 -0.122069,0.0637 -0.07961,0.0265 -0.212296,0.0371 -0.132685,0.0159 -0.323751,0.0159 -0.196373,0 -0.323751,-0.0159 -0.12207,-0.0106 -0.191066,-0.0318 -0.069,-0.0265 -0.09553,-0.0637 -0.02123,-0.0425 -0.01061,-0.0955 l 1.40115,-6.98453 q 0.01062,-0.0531 0.04777,-0.0955 0.03715,-0.0425 0.12207,-0.069 0.08492,-0.0318 0.212295,-0.0478 0.132685,-0.0159 0.329059,-0.0159 0.196373,0 0.318443,0.0159 0.127377,0.0159 0.196373,0.0478 0.069,0.0265 0.09023,0.069 0.02123,0.0425 0.01062,0.0955 l -0.827953,4.15569 1.772668,-1.89474 q 0.05307,-0.0637 0.111455,-0.10615 0.06369,-0.0478 0.159222,-0.0743 0.09553,-0.0265 0.228218,-0.0371 0.137992,-0.0106 0.339673,-0.0106 0.196373,0 0.329058,0.0106 0.132685,0.0106 0.206988,0.0371 0.0743,0.0212 0.10084,0.0584 0.03185,0.0371 0.03185,0.0849 z"
             style="font-style:italic;font-variant:normal;font-weight:bold;font-stretch:normal;font-family:Calibri;-inkscape-font-specification:'Calibri Bold Italic';stroke-width:0.27173835"
             id="path17" />
          <path
             d="m 37.041667,287.45857 q 0,0.0637 -0.02123,0.19107 -0.01592,0.12207 -0.05307,0.24945 -0.03715,0.12738 -0.09023,0.22291 -0.04777,0.0902 -0.111455,0.0902 -0.069,0 -0.164529,-0.0478 -0.09022,-0.0531 -0.22291,-0.11146 -0.132685,-0.0637 -0.313136,-0.11145 -0.175144,-0.0478 -0.413977,-0.0478 -0.185758,0 -0.334365,0.0478 -0.1433,0.0478 -0.238833,0.13268 -0.09553,0.0796 -0.148606,0.19107 -0.04777,0.11145 -0.04777,0.23883 0,0.16453 0.132685,0.27598 0.137992,0.11146 0.339673,0.2123 0.20168,0.0955 0.435206,0.20168 0.233525,0.10615 0.435206,0.26537 0.20168,0.15922 0.334365,0.38744 0.132685,0.22822 0.132685,0.5732 0,0.40336 -0.153914,0.74834 -0.153915,0.33967 -0.451129,0.58912 -0.291906,0.24945 -0.716497,0.39275 -0.419284,0.13799 -0.950023,0.13799 -0.254755,0 -0.48828,-0.0371 -0.228217,-0.0371 -0.413976,-0.0902 -0.180451,-0.0531 -0.307829,-0.12207 -0.127377,-0.069 -0.191066,-0.12738 -0.04246,-0.0425 -0.06369,-0.0902 -0.01592,-0.0478 -0.01592,-0.12207 0,-0.0478 0.0053,-0.12207 0.01062,-0.0743 0.02654,-0.16453 0.02123,-0.0902 0.04246,-0.18045 0.02654,-0.0902 0.05838,-0.16453 0.03184,-0.0743 0.069,-0.11676 0.03715,-0.0478 0.07961,-0.0478 0.0743,0 0.164529,0.0637 0.09023,0.0637 0.233525,0.1433 0.1433,0.0743 0.350288,0.1433 0.212296,0.0637 0.525432,0.0637 0.217603,0 0.376824,-0.0478 0.164529,-0.0531 0.270677,-0.1433 0.106148,-0.0902 0.153914,-0.20699 0.05307,-0.11676 0.05307,-0.24944 0,-0.18576 -0.132684,-0.30253 -0.127378,-0.11676 -0.323751,-0.2176 -0.196374,-0.10084 -0.429899,-0.20699 -0.228217,-0.10614 -0.424591,-0.26006 -0.196373,-0.15391 -0.329058,-0.38213 -0.127377,-0.22822 -0.127377,-0.5732 0,-0.37682 0.143299,-0.70057 0.1433,-0.32376 0.419284,-0.56259 0.275984,-0.24414 0.668731,-0.37682 0.392747,-0.13799 0.891641,-0.13799 0.222911,0 0.429899,0.0318 0.212295,0.0265 0.376825,0.0743 0.169836,0.0478 0.291906,0.10615 0.127377,0.0584 0.180451,0.11676 0.05838,0.0531 0.05838,0.18045 z"
             style="font-style:italic;font-variant:normal;font-weight:bold;font-stretch:normal;font-family:Calibri;-inkscape-font-specification:'Calibri Bold Italic';stroke-width:0.27173835"
             id="path19" />
        </g>
      </g>
    </g>
  </g>
</svg>
