<?xml version="1.0" encoding="UTF-8" standalone="no"?>
<!-- Created with Inkscape (http://www.inkscape.org/) -->

<svg xmlns:dc="http://purl.org/dc/elements/1.1/" xmlns:cc="http://creativecommons.org/ns#" xmlns:rdf="http://www.w3.org/1999/02/22-rdf-syntax-ns#" xmlns:svg="http://www.w3.org/2000/svg" xmlns="http://www.w3.org/2000/svg" xmlns:sodipodi="http://sodipodi.sourceforge.net/DTD/sodipodi-0.dtd" xmlns:inkscape="http://www.inkscape.org/namespaces/inkscape" width="140" height="64" viewBox="0 0 37.041666 16.933334" version="1.1" id="svg8" inkscape:version="0.92.4 (5da689c313, 2019-01-14)" sodipodi:docname="client-logo-01.svg">
   <defs id="defs2" />
   <sodipodi:namedview id="base" pagecolor="#ffffff" bordercolor="#666666" borderopacity="1.0" inkscape:pageopacity="0.0" inkscape:pageshadow="2" inkscape:zoom="2.8" inkscape:cx="53.983379" inkscape:cy="20.737863" inkscape:document-units="px" inkscape:current-layer="g41" showgrid="false" units="px" inkscape:window-width="1366" inkscape:window-height="705" inkscape:window-x="-8" inkscape:window-y="-8" inkscape:window-maximized="1" />
   <metadata id="metadata5">
      <rdf:RDF>
         <cc:Work rdf:about="">
            <dc:format>image/svg+xml</dc:format>
            <dc:type rdf:resource="http://purl.org/dc/dcmitype/StillImage" />
            <dc:title />
         </cc:Work>
      </rdf:RDF>
   </metadata>
   <g inkscape:label="Layer 1" inkscape:groupmode="layer" id="layer1" transform="translate(0,-280.06665)">
      <g id="g41">
         <g id="text12" style="font-style:normal;font-variant:normal;font-weight:bold;font-stretch:condensed;font-size:11.05366898px;line-height:1.25;font-family:'Agency FB';-inkscape-font-specification:'Agency FB Bold Condensed';letter-spacing:0px;word-spacing:0px;fill:#000000;fill-opacity:1;stroke:none;stroke-width:0.27634171" aria-label="Essentials">
            <path id="path9" style="font-style:normal;font-variant:normal;font-weight:bold;font-stretch:condensed;font-family:'Agency FB';-inkscape-font-specification:'Agency FB Bold Condensed';stroke-width:0.27634171" d="M 3.5028472,292.74591 H -1.8626451e-8 v -8.44677 H 3.4704634 v 1.11724 H 1.262968 v 2.46656 h 1.8998494 v 1.09566 H 1.262968 v 2.65007 h 2.2398792 z" />
            <path id="path11" style="font-style:normal;font-variant:normal;font-weight:bold;font-stretch:condensed;font-family:'Agency FB';-inkscape-font-specification:'Agency FB Bold Condensed';stroke-width:0.27634171" d="m 7.7235352,292.07125 q 0,0.67466 -0.6854571,0.67466 H 4.9601179 q -0.685457,0 -0.685457,-0.67466 v -1.17122 h 1.1820085 v 0.91755 h 1.0848572 v -0.86357 l -1.8944521,-1.11724 q -0.3724136,-0.22129 -0.3724136,-0.59371 v -1.27376 q 0,-0.67466 0.6962516,-0.67466 h 2.056371 q 0.6854571,0 0.6854571,0.67466 v 1.09565 h -1.171214 v -0.84198 H 5.4566694 v 0.78801 l 1.8890548,1.10645 q 0.377811,0.21589 0.377811,0.60449 z" />
            <path id="path13" style="font-style:normal;font-variant:normal;font-weight:bold;font-stretch:condensed;font-family:'Agency FB';-inkscape-font-specification:'Agency FB Bold Condensed';stroke-width:0.27634171" d="m 12.019786,292.07125 q 0,0.67466 -0.685457,0.67466 H 9.2563687 q -0.685457,0 -0.685457,-0.67466 v -1.17122 h 1.1820086 v 0.91755 h 1.0848567 v -0.86357 l -1.8944516,-1.11724 q -0.3724137,-0.22129 -0.3724137,-0.59371 v -1.27376 q 0,-0.67466 0.6962516,-0.67466 h 2.0563707 q 0.685457,0 0.685457,0.67466 v 1.09565 h -1.171214 v -0.84198 H 9.7529203 v 0.78801 l 1.8890547,1.10645 q 0.377811,0.21589 0.377811,0.60449 z" />
            <path id="path15" style="font-style:normal;font-variant:normal;font-weight:bold;font-stretch:condensed;font-family:'Agency FB';-inkscape-font-specification:'Agency FB Bold Condensed';stroke-width:0.27634171" d="m 16.413187,292.07125 q 0,0.67466 -0.696252,0.67466 h -2.131933 q -0.696252,0 -0.696252,-0.67466 v -4.10195 q 0,-0.67466 0.696252,-0.67466 h 2.131933 q 0.696252,0 0.696252,0.67466 v 2.0024 l -0.34003,0.34003 h -2.002398 v 1.52743 h 1.160419 v -0.90674 h 1.182009 z m -1.182009,-2.56372 v -1.30615 h -1.160419 v 1.30615 z" />
            <path id="path17" style="font-style:normal;font-variant:normal;font-weight:bold;font-stretch:condensed;font-family:'Agency FB';-inkscape-font-specification:'Agency FB Bold Condensed';stroke-width:0.27634171" d="m 20.952315,292.74591 h -1.241379 v -4.42039 l -1.160419,0.0216 v 4.3988 h -1.235982 v -5.45127 h 1.235982 v 0.1997 q 0.431784,-0.0702 0.85817,-0.13493 0.528936,-0.0864 0.868966,-0.0864 0.674662,0 0.674662,0.66387 z" />
            <path id="path19" style="font-style:normal;font-variant:normal;font-weight:bold;font-stretch:condensed;font-family:'Agency FB';-inkscape-font-specification:'Agency FB Bold Condensed';stroke-width:0.27634171" d="m 24.201491,292.74591 h -1.370914 q -0.685457,0 -0.685457,-0.67466 v -3.72414 h -0.582908 v -1.05247 h 0.582908 v -1.47886 h 1.230584 v 1.47886 h 0.793403 v 1.05247 h -0.793403 v 3.34633 h 0.825787 z" />
            <path id="path21" style="font-style:normal;font-variant:normal;font-weight:bold;font-stretch:condensed;font-family:'Agency FB';-inkscape-font-specification:'Agency FB Bold Condensed';stroke-width:0.27634171" d="m 26.149914,286.51203 h -1.235981 v -1.27376 h 1.235981 z m -0.01079,6.23388 h -1.214392 v -5.45127 h 1.214392 z" />
            <path id="path23" style="font-style:normal;font-variant:normal;font-weight:bold;font-stretch:condensed;font-family:'Agency FB';-inkscape-font-specification:'Agency FB Bold Condensed';stroke-width:0.27634171" d="m 30.564906,292.74591 h -1.182009 v -0.1889 q -0.420989,0.0648 -0.841978,0.12953 -0.550525,0.081 -0.836582,0.081 -0.674662,0 -0.674662,-0.66387 v -1.96461 q 0,-0.67467 0.696251,-0.67467 h 1.667766 v -1.25217 h -1.182009 v 0.77721 h -1.117241 v -1.02009 q 0,-0.67466 0.696252,-0.67466 h 2.088755 q 0.685457,0 0.685457,0.67466 z m -1.171214,-0.98231 v -1.46267 h -1.182009 v 1.50585 z" />
            <path id="path25" style="font-style:normal;font-variant:normal;font-weight:bold;font-stretch:condensed;font-family:'Agency FB';-inkscape-font-specification:'Agency FB Bold Condensed';stroke-width:0.27634171" d="m 32.702238,292.74591 h -1.214392 v -8.44677 h 1.214392 z" />
            <path id="path27" style="font-style:normal;font-variant:normal;font-weight:bold;font-stretch:condensed;font-family:'Agency FB';-inkscape-font-specification:'Agency FB Bold Condensed';stroke-width:0.27634171" d="m 37.041667,292.07125 q 0,0.67466 -0.685457,0.67466 h -2.07796 q -0.685457,0 -0.685457,-0.67466 v -1.17122 h 1.182008 v 0.91755 h 1.084858 v -0.86357 l -1.894453,-1.11724 q -0.372413,-0.22129 -0.372413,-0.59371 v -1.27376 q 0,-0.67466 0.696251,-0.67466 h 2.056371 q 0.685457,0 0.685457,0.67466 v 1.09565 h -1.171213 v -0.84198 h -1.084858 v 0.78801 l 1.889055,1.10645 q 0.377811,0.21589 0.377811,0.60449 z" />
         </g>
      </g>
   </g>
</svg>