<?xml version="1.0" encoding="UTF-8" standalone="no"?>
<!-- Created with Inkscape (http://www.inkscape.org/) -->

<svg
   xmlns:dc="http://purl.org/dc/elements/1.1/"
   xmlns:cc="http://creativecommons.org/ns#"
   xmlns:rdf="http://www.w3.org/1999/02/22-rdf-syntax-ns#"
   xmlns:svg="http://www.w3.org/2000/svg"
   xmlns="http://www.w3.org/2000/svg"
   xmlns:sodipodi="http://sodipodi.sourceforge.net/DTD/sodipodi-0.dtd"
   xmlns:inkscape="http://www.inkscape.org/namespaces/inkscape"
   width="140"
   height="64"
   viewBox="0 0 37.041666 16.933334"
   version="1.1"
   id="svg8"
   inkscape:version="0.92.4 (5da689c313, 2019-01-14)"
   sodipodi:docname="client-logo-07.svg">
  <defs
     id="defs2" />
  <sodipodi:namedview
     id="base"
     pagecolor="#ffffff"
     bordercolor="#666666"
     borderopacity="1.0"
     inkscape:pageopacity="0.0"
     inkscape:pageshadow="2"
     inkscape:zoom="2.8"
     inkscape:cx="53.983379"
     inkscape:cy="20.737863"
     inkscape:document-units="px"
     inkscape:current-layer="layer1"
     showgrid="false"
     units="px"
     inkscape:window-width="1366"
     inkscape:window-height="705"
     inkscape:window-x="-8"
     inkscape:window-y="-8"
     inkscape:window-maximized="1" />
  <metadata
     id="metadata5">
    <rdf:RDF>
      <cc:Work
         rdf:about="">
        <dc:format>image/svg+xml</dc:format>
        <dc:type
           rdf:resource="http://purl.org/dc/dcmitype/StillImage" />
        <dc:title />
      </cc:Work>
    </rdf:RDF>
  </metadata>
  <g
     inkscape:label="Layer 1"
     inkscape:groupmode="layer"
     id="layer1"
     transform="translate(0,-280.06665)">
    <g
       id="g50">
      <g
         id="g37">
        <g
           id="g25">
          <g
             id="g32">
            <g
               aria-label="Airhead"
               style="font-style:italic;font-variant:normal;font-weight:bold;font-stretch:normal;font-size:8.77821445px;line-height:1.25;font-family:'Century Schoolbook';-inkscape-font-specification:'Century Schoolbook Bold Italic';letter-spacing:0px;word-spacing:0px;fill:#000000;fill-opacity:1;stroke:none;stroke-width:0.21945536"
               id="text36">
              <path
                 d="m 4.4919776,285.3422 h 0.5786421 l 0.7672365,5.46496 q 0.03429,0.2486 0.162877,0.3429 0.180022,0.13287 0.4800586,0.13287 h 0.1971669 l -0.1071559,0.39862 H 3.6561613 l 0.098583,-0.39862 h 0.2143119 q 0.3386128,0 0.4586274,-0.0814 0.1243009,-0.0857 0.1243009,-0.25717 0,-0.06 -0.012859,-0.13716 l -0.1585908,-1.14014 h -2.147405 l -0.4243375,0.66008 q -0.1757357,0.2786 -0.1757357,0.51006 0,0.21003 0.1371596,0.33004 0.1414458,0.11573 0.4286237,0.11573 h 0.1757358 l -0.098584,0.39862 H 6.6356733e-7 L 0.09858413,291.28293 q 0.29575039,-0.0172 0.46719989,-0.13716 0.33004029,-0.22717 0.49720358,-0.48435 z m -0.4886311,1.58163 -1.4658932,2.26742 h 1.7787886 z"
                 style="font-style:italic;font-variant:normal;font-weight:bold;font-stretch:normal;font-family:'Century Schoolbook';-inkscape-font-specification:'Century Schoolbook Bold Italic';stroke-width:0.21945536"
                 id="path9" />
              <path
                 d="m 9.1168278,285.33792 q 0.2914641,0 0.4972035,0.20574 0.2057394,0.20574 0.2057394,0.4972 0,0.29146 -0.2057394,0.4972 -0.2057394,0.20574 -0.4972035,0.20574 -0.2914642,0 -0.4972036,-0.20574 -0.2057394,-0.20574 -0.2057394,-0.4972 0,-0.29146 0.2057394,-0.4972 0.2057394,-0.20574 0.4972036,-0.20574 z m -1.5473318,2.31885 1.9416656,-0.0814 -0.921541,3.18039 q -0.060007,0.21431 -0.060007,0.3129 0,0.0772 0.030004,0.12001 0.030004,0.0386 0.085725,0.0386 0.1243009,0 0.3171816,-0.18431 0.3214678,-0.30432 0.6300769,-0.86153 l 0.3128954,0.18002 q -0.8015264,1.44446 -1.7616436,1.44446 -0.3257541,0 -0.5143486,-0.19288 -0.1885944,-0.19288 -0.1885944,-0.52721 0,-0.23145 0.060007,-0.43719 l 0.6386494,-2.22028 q 0.021431,-0.06 0.021431,-0.1243 0,-0.12001 -0.098584,-0.18859 -0.098583,-0.0729 -0.3386127,-0.0729 H 7.4494814 Z"
                 style="font-style:italic;font-variant:normal;font-weight:bold;font-stretch:normal;font-family:'Century Schoolbook';-inkscape-font-specification:'Century Schoolbook Bold Italic';stroke-width:0.21945536"
                 id="path11" />
              <path
                 d="m 10.947051,287.66534 1.675919,-0.09 -0.411479,1.8388 q 0.420051,-1.02441 0.767236,-1.38874 0.484345,-0.50149 1.10585,-0.50149 0.355757,0 0.565783,0.20145 0.214312,0.19717 0.214312,0.51435 0,0.30432 -0.184308,0.51006 -0.180022,0.20146 -0.420052,0.20146 -0.210025,0 -0.355757,-0.13716 -0.145732,-0.14145 -0.145732,-0.33862 0,-0.11144 0.03858,-0.25288 0.01286,-0.0471 0.01286,-0.0729 0,-0.0472 -0.03858,-0.0814 -0.03858,-0.0386 -0.0943,-0.0386 -0.167163,0 -0.394334,0.18003 -0.22717,0.17573 -0.518634,0.76723 -0.394334,0.8101 -0.63865,1.64163 l -0.308609,1.06299 -1.148712,0.0471 0.642936,-2.26314 q 0.175736,-0.63007 0.175736,-0.99869 0,-0.25717 -0.120015,-0.34718 -0.120015,-0.09 -0.531493,-0.0857 z"
                 style="font-style:italic;font-variant:normal;font-weight:bold;font-stretch:normal;font-family:'Century Schoolbook';-inkscape-font-specification:'Century Schoolbook Bold Italic';stroke-width:0.21945536"
                 id="path13" />
              <path
                 d="m 16.176261,285.3422 1.950238,-0.0814 -0.972976,3.38612 q 0.492918,-0.66008 0.9344,-0.93011 0.441483,-0.27432 0.887251,-0.27432 0.39862,0 0.647222,0.25289 0.252888,0.25289 0.252888,0.64293 0,0.3429 -0.137159,0.77153 l -0.565784,1.74878 q -0.03,0.0986 -0.03,0.18431 0,0.0772 0.03429,0.11573 0.03858,0.0386 0.09858,0.0386 0.355758,0 0.840103,-1.04155 l 0.347185,0.11573 q -0.342899,0.79295 -0.771523,1.14442 -0.424337,0.35147 -0.86582,0.35147 -0.351471,0 -0.557211,-0.19716 -0.201453,-0.19717 -0.201453,-0.51864 0,-0.30861 0.227171,-0.98583 0.33004,-0.97298 0.39862,-1.25158 0.06858,-0.2829 0.06858,-0.43291 0,-0.15431 -0.08573,-0.24003 -0.08144,-0.09 -0.222885,-0.09 -0.420051,0 -0.981548,0.7158 -0.557211,0.7158 -0.852961,1.7445 l -0.330041,1.17014 -1.144425,0.0343 1.603053,-5.59783 q 0.02143,-0.0643 0.02143,-0.12858 0,-0.11145 -0.09858,-0.17574 -0.09858,-0.0686 -0.342899,-0.0686 h -0.265747 z"
                 style="font-style:italic;font-variant:normal;font-weight:bold;font-stretch:normal;font-family:'Century Schoolbook';-inkscape-font-specification:'Century Schoolbook Bold Italic';stroke-width:0.21945536"
                 id="path15" />
              <path
                 d="m 22.369874,290.09993 q -0.01714,0.16287 -0.01714,0.27003 0,0.45434 0.222884,0.69866 0.222884,0.24431 0.595787,0.24431 0.312895,0 0.612932,-0.15002 0.304323,-0.15001 0.741519,-0.59578 l 0.287178,0.22288 q -0.50149,0.55293 -0.985835,0.78438 -0.480058,0.23146 -1.037269,0.23146 -0.788668,0 -1.243009,-0.45005 -0.450055,-0.45435 -0.450055,-1.23016 0,-0.69008 0.377189,-1.32016 0.377189,-0.63436 1.028697,-0.99869 0.655794,-0.36433 1.410172,-0.36433 0.552925,0 0.857248,0.26575 0.304323,0.26574 0.304323,0.67294 0,0.33861 -0.244316,0.68151 -0.244316,0.33861 -0.792954,0.5915 -0.548638,0.2486 -1.667346,0.44577 z m 0.05143,-0.35576 q 0.732947,-0.14145 1.067274,-0.45434 0.458627,-0.43291 0.458627,-0.97298 0,-0.22288 -0.107156,-0.34718 -0.10287,-0.12859 -0.26146,-0.12859 -0.317182,0 -0.591501,0.38148 -0.402906,0.55292 -0.565784,1.52161 z"
                 style="font-style:italic;font-variant:normal;font-weight:bold;font-stretch:normal;font-family:'Century Schoolbook';-inkscape-font-specification:'Century Schoolbook Bold Italic';stroke-width:0.21945536"
                 id="path17" />
              <path
                 d="m 29.167848,288.27399 0.231457,-0.61722 1.097277,-0.0814 -0.848675,3.06038 q -0.08573,0.31289 -0.08573,0.39862 0,0.0643 0.02572,0.0986 0.03,0.0343 0.08573,0.0343 0.317182,0 0.822958,-0.99869 l 0.321467,0.17573 q -0.750091,1.46161 -1.637342,1.46161 -0.304323,0 -0.471486,-0.18431 -0.167164,-0.18859 -0.197167,-0.55721 -0.325754,0.41148 -0.634364,0.57864 -0.304322,0.16288 -0.647221,0.16288 -0.587215,0 -0.96869,-0.42005 -0.381475,-0.42434 -0.381475,-1.15729 0,-0.70294 0.338613,-1.34587 0.342899,-0.64294 0.878678,-0.9987 0.53578,-0.36004 1.097277,-0.36004 0.385761,0 0.621504,0.18002 0.235744,0.18002 0.351472,0.57007 z m -0.724374,-0.23146 q -0.522921,0 -0.942972,0.73295 -0.415765,0.73295 -0.415765,1.68021 0,0.44148 0.132873,0.62579 0.132873,0.18002 0.381475,0.18002 0.26146,0 0.561497,-0.26146 0.300037,-0.26575 0.531494,-0.88297 0.231456,-0.6215 0.231456,-1.32016 0,-0.41576 -0.128587,-0.58293 -0.124301,-0.17145 -0.351471,-0.17145 z"
                 style="font-style:italic;font-variant:normal;font-weight:bold;font-stretch:normal;font-family:'Century Schoolbook';-inkscape-font-specification:'Century Schoolbook Bold Italic';stroke-width:0.21945536"
                 id="path19" />
              <path
                 d="m 35.074283,285.3422 1.967383,-0.0772 -1.59448,5.5764 q -0.03429,0.1243 -0.03429,0.20145 0,0.0814 0.03429,0.1243 0.03858,0.0386 0.10287,0.0386 0.338613,0 0.938686,-1.03727 l 0.308609,0.16716 q -0.381475,0.76724 -0.83153,1.11871 -0.450055,0.35147 -0.882965,0.35147 -0.312895,0 -0.497204,-0.18431 -0.180022,-0.18859 -0.231457,-0.5615 -0.372902,0.41577 -0.69437,0.58293 -0.321468,0.16288 -0.672939,0.16288 -0.621505,0 -1.032984,-0.4372 -0.407192,-0.43719 -0.407192,-1.14442 0,-0.69437 0.360044,-1.39732 0.360044,-0.70294 0.86582,-1.04155 0.505776,-0.3429 1.084418,-0.3429 0.415765,0 0.711515,0.17574 0.295751,0.17145 0.505776,0.54435 l 0.608646,-2.07025 q 0.01714,-0.0643 0.01714,-0.12431 0,-0.10287 -0.111442,-0.16716 -0.107156,-0.0686 -0.390048,-0.0686 h -0.248601 z m -0.840102,2.64033 q -0.304323,0 -0.548639,0.21431 -0.347185,0.30003 -0.621504,0.96869 -0.274319,0.66436 -0.274319,1.26872 0,0.41148 0.154304,0.60865 0.158591,0.19717 0.415765,0.19717 0.330041,0 0.642936,-0.32576 0.39862,-0.40719 0.642936,-1.20872 0.184308,-0.60436 0.184308,-1.00298 0,-0.3429 -0.167163,-0.53149 -0.162877,-0.18859 -0.428624,-0.18859 z"
                 style="font-style:italic;font-variant:normal;font-weight:bold;font-stretch:normal;font-family:'Century Schoolbook';-inkscape-font-specification:'Century Schoolbook Bold Italic';stroke-width:0.21945536"
                 id="path21" />
            </g>
          </g>
        </g>
      </g>
    </g>
  </g>
</svg>
