<?xml version="1.0" encoding="UTF-8" standalone="no"?>
<!-- Created with Inkscape (http://www.inkscape.org/) -->

<svg
   xmlns:dc="http://purl.org/dc/elements/1.1/"
   xmlns:cc="http://creativecommons.org/ns#"
   xmlns:rdf="http://www.w3.org/1999/02/22-rdf-syntax-ns#"
   xmlns:svg="http://www.w3.org/2000/svg"
   xmlns="http://www.w3.org/2000/svg"
   xmlns:sodipodi="http://sodipodi.sourceforge.net/DTD/sodipodi-0.dtd"
   xmlns:inkscape="http://www.inkscape.org/namespaces/inkscape"
   width="140"
   height="64"
   viewBox="0 0 37.041666 16.933334"
   version="1.1"
   id="svg8"
   inkscape:version="0.92.4 (5da689c313, 2019-01-14)"
   sodipodi:docname="client-logo-06.svg">
  <defs
     id="defs2" />
  <sodipodi:namedview
     id="base"
     pagecolor="#ffffff"
     bordercolor="#666666"
     borderopacity="1.0"
     inkscape:pageopacity="0.0"
     inkscape:pageshadow="2"
     inkscape:zoom="2.8"
     inkscape:cx="53.983379"
     inkscape:cy="20.737863"
     inkscape:document-units="px"
     inkscape:current-layer="layer1"
     showgrid="false"
     units="px"
     inkscape:window-width="1366"
     inkscape:window-height="705"
     inkscape:window-x="-8"
     inkscape:window-y="-8"
     inkscape:window-maximized="1" />
  <metadata
     id="metadata5">
    <rdf:RDF>
      <cc:Work
         rdf:about="">
        <dc:format>image/svg+xml</dc:format>
        <dc:type
           rdf:resource="http://purl.org/dc/dcmitype/StillImage" />
        <dc:title />
      </cc:Work>
    </rdf:RDF>
  </metadata>
  <g
     inkscape:label="Layer 1"
     inkscape:groupmode="layer"
     id="layer1"
     transform="translate(0,-280.06665)">
    <g
       aria-label="Shotclock"
       style="font-style:normal;font-variant:normal;font-weight:normal;font-stretch:normal;font-size:7.06409597px;line-height:1.25;font-family:'OCR A Extended';-inkscape-font-specification:'OCR A Extended';letter-spacing:0px;word-spacing:0px;fill:#000000;fill-opacity:1;stroke:none;stroke-width:0.17660242"
       id="text32">
      <path
         d="M 0.66226074,286.24127 H 2.1695898 q 0.2759413,0 0.5208391,0.23455 0.2483471,0.2311 0.2483471,0.56223 0,0.12418 -0.089681,0.21041 -0.086232,0.0862 -0.1931588,0.0862 -0.1483185,0 -0.2035067,-0.0655 -0.055188,-0.069 -0.1069272,-0.2518 -0.04829,-0.18281 -0.220753,-0.18281 H 0.69330413 q -0.10347797,0 -0.10347797,0.0655 0,0.0414 0.0448405,0.0966 l 2.14889249,2.74907 q 0.1552169,0.20006 0.1552169,0.42771 0,0.25869 -0.1897096,0.4553 -0.1862603,0.19661 -0.4173611,0.19661 H 0.76918797 q -0.3104339,0 -0.5415347,-0.23455 Q 1.7413404e-6,290.3528 1.7413404e-6,290.06996 q 0,-0.32423 0.3035353786596,-0.32423 0.11727503,0 0.2000574,0.0862 0.0827824,0.0828 0.0827824,0.19661 0,0.0931 0.0620868,0.15521 0.065536,0.0621 0.16211548,0.0621 H 2.2523722 q 0.09313,0 0.09313,-0.0724 0,-0.0345 -0.04484,-0.0897 l -2.14544321,-2.74907 q -0.15176768,-0.19661 -0.15176768,-0.42771 0,-0.26904 0.19315887,-0.46565 0.19315888,-0.20006 0.46565086,-0.20006 z"
         style="font-style:normal;font-variant:normal;font-weight:normal;font-stretch:normal;font-family:'OCR A Extended';-inkscape-font-specification:'OCR A Extended';stroke-width:0.17660242"
         id="path9" />
      <path
         d="m 4.2632941,290.53561 v -4.0046 q 0,-0.11727 0.082782,-0.20006 0.086232,-0.0828 0.206956,-0.0828 0.1207243,0 0.2035066,0.0862 0.086232,0.0828 0.086232,0.20351 v 1.46249 l 0.4656508,-0.30354 q 0.3173325,-0.20005 0.5656796,-0.20005 h 0.3587236 q 0.3552744,0 0.61052,0.25524 0.2552457,0.2518 0.2655935,0.61397 l 0.072435,2.16959 q 0.00345,0.12072 -0.082782,0.20696 -0.086232,0.0828 -0.2069559,0.0828 -0.1207243,0 -0.2035067,-0.0862 -0.082782,-0.0897 -0.086232,-0.20351 l -0.072434,-2.17649 q -0.00345,-0.11727 -0.089681,-0.2035 -0.086232,-0.0862 -0.206956,-0.0862 H 5.9085938 q -0.1103765,0 -0.2414486,0.0862 l -0.8243745,0.53808 v 1.84191 q 0,0.12072 -0.086232,0.20696 -0.082782,0.0828 -0.2035066,0.0828 -0.1207243,0 -0.206956,-0.0828 -0.082782,-0.0862 -0.082782,-0.20696 z"
         style="font-style:normal;font-variant:normal;font-weight:normal;font-stretch:normal;font-family:'OCR A Extended';-inkscape-font-specification:'OCR A Extended';stroke-width:0.17660242"
         id="path11" />
      <path
         d="m 11.451564,288.54193 v 1.22449 q 0,0.38977 -0.369072,0.7209 -0.365622,0.33113 -0.755389,0.33113 H 9.6475977 q -0.3966656,0 -0.7588384,-0.33458 -0.3621729,-0.33803 -0.3621729,-0.71745 v -1.22449 q 0,-0.37942 0.3518251,-0.71399 0.3552743,-0.33803 0.7691862,-0.33803 h 0.6795053 q 0.389767,-0.007 0.755389,0.32423 0.369072,0.33113 0.369072,0.72779 z m -2.3386025,0.0242 v 1.17275 q 0,0.15867 0.1138258,0.2518 l 0.2173037,0.18626 q 0.072435,0.0621 0.2035067,0.0621 h 0.6726063 q 0.148319,0 0.269043,-0.10692 l 0.175913,-0.15522 q 0.106927,-0.0828 0.106927,-0.2311 v -1.17275 q 0,-0.17247 -0.106927,-0.25525 l -0.203507,-0.16211 q -0.103478,-0.0862 -0.241449,-0.0862 H 9.7200323 q -0.1966082,0 -0.3035354,0.0931 l -0.1966081,0.16902 q -0.1069273,0.0897 -0.1069273,0.23455 z"
         style="font-style:normal;font-variant:normal;font-weight:normal;font-stretch:normal;font-family:'OCR A Extended';-inkscape-font-specification:'OCR A Extended';stroke-width:0.17660242"
         id="path13" />
      <path
         d="m 14.831844,290.82535 h -0.579477 q -0.358723,0 -0.617418,-0.25525 -0.258695,-0.25524 -0.258695,-0.61397 v -1.87985 h -0.296637 q -0.120724,0 -0.206956,-0.0828 -0.08278,-0.0828 -0.08278,-0.20696 0,-0.12072 0.08278,-0.2035 0.08623,-0.0862 0.206956,-0.0862 h 0.303535 v -0.71055 q 0,-0.12073 0.08278,-0.20351 0.08623,-0.0862 0.206956,-0.0862 0.113825,0 0.200057,0.0862 0.08968,0.0862 0.08968,0.20351 v 0.71055 h 1.165852 q 0.117275,0 0.203506,0.0862 0.08623,0.0862 0.08623,0.2035 0,0.12073 -0.08623,0.20696 -0.08623,0.0828 -0.203506,0.0828 H 13.95573 v 1.87985 q 0,0.11728 0.08623,0.20351 0.08968,0.0862 0.210405,0.0862 h 0.56568 q 0.231101,0 0.306984,-0.24835 0.07588,-0.25179 0.293188,-0.25179 0.127623,0 0.206956,0.0862 0.08278,0.0828 0.08278,0.2104 0,0.26215 -0.248347,0.52429 -0.244898,0.2587 -0.627766,0.2587 z"
         style="font-style:normal;font-variant:normal;font-weight:normal;font-stretch:normal;font-family:'OCR A Extended';-inkscape-font-specification:'OCR A Extended';stroke-width:0.17660242"
         id="path15" />
      <path
         d="m 19.695308,290.82535 h -1.238286 q -0.32768,0 -0.558781,-0.19661 l -0.56223,-0.4898 q -0.269043,-0.2242 -0.269043,-0.60707 v -0.75539 q -0.0138,-0.36907 0.303535,-0.64156 l 0.507042,-0.43806 q 0.244898,-0.20005 0.524289,-0.20005 h 1.300373 q 0.120724,0 0.203507,0.0862 0.08623,0.0828 0.08623,0.2035 0,0.12418 -0.08623,0.20696 -0.08278,0.0828 -0.203507,0.0828 h -1.245185 q -0.117275,0 -0.224202,0.0931 l -0.465651,0.39667 q -0.113826,0.0966 -0.113826,0.25869 v 0.7071 q 0,0.11383 0.08968,0.19316 l 0.510491,0.43461 q 0.09658,0.0862 0.255246,0.0862 h 1.186547 q 0.117275,0 0.203507,0.0862 0.08623,0.0828 0.08623,0.20351 0,0.12072 -0.08623,0.20696 -0.08278,0.0828 -0.203507,0.0828 z"
         style="font-style:normal;font-variant:normal;font-weight:normal;font-stretch:normal;font-family:'OCR A Extended';-inkscape-font-specification:'OCR A Extended';stroke-width:0.17660242"
         id="path17" />
      <path
         d="m 23.661964,290.82535 h -1.752227 q -0.120724,0 -0.206956,-0.0862 -0.08278,-0.0897 -0.08278,-0.21041 0,-0.11727 0.08278,-0.20351 0.08623,-0.0862 0.206956,-0.0862 h 0.579477 v -3.41822 h -0.586376 q -0.120724,0 -0.206955,-0.0828 -0.08278,-0.0862 -0.08278,-0.20696 0,-0.12072 0.08278,-0.2035 0.08623,-0.0862 0.206955,-0.0862 h 0.883012 q 0.117275,0 0.203507,0.0862 0.08623,0.0862 0.08623,0.2035 v 3.70796 h 0.586375 q 0.117275,0 0.203507,0.0862 0.08623,0.0862 0.08623,0.20351 0,0.12073 -0.08623,0.21041 -0.08278,0.0862 -0.203507,0.0862 z"
         style="font-style:normal;font-variant:normal;font-weight:normal;font-stretch:normal;font-family:'OCR A Extended';-inkscape-font-specification:'OCR A Extended';stroke-width:0.17660242"
         id="path19" />
      <path
         d="m 28.504733,288.54193 v 1.22449 q 0,0.38977 -0.369072,0.7209 -0.365622,0.33113 -0.755389,0.33113 h -0.679505 q -0.396666,0 -0.758838,-0.33458 -0.362173,-0.33803 -0.362173,-0.71745 v -1.22449 q 0,-0.37942 0.351825,-0.71399 0.355274,-0.33803 0.769186,-0.33803 h 0.679505 q 0.389767,-0.007 0.755389,0.32423 0.369072,0.33113 0.369072,0.72779 z m -2.338602,0.0242 v 1.17275 q 0,0.15867 0.113826,0.2518 l 0.217303,0.18626 q 0.07243,0.0621 0.203507,0.0621 h 0.672607 q 0.148318,0 0.269042,-0.10692 l 0.175913,-0.15522 q 0.106927,-0.0828 0.106927,-0.2311 v -1.17275 q 0,-0.17247 -0.106927,-0.25525 l -0.203507,-0.16211 q -0.103478,-0.0862 -0.241448,-0.0862 h -0.600172 q -0.196609,0 -0.303536,0.0931 l -0.196608,0.16902 q -0.106927,0.0897 -0.106927,0.23455 z"
         style="font-style:normal;font-variant:normal;font-weight:normal;font-stretch:normal;font-family:'OCR A Extended';-inkscape-font-specification:'OCR A Extended';stroke-width:0.17660242"
         id="path21" />
      <path
         d="m 32.485185,290.82535 h -1.238286 q -0.32768,0 -0.558781,-0.19661 l -0.56223,-0.4898 q -0.269043,-0.2242 -0.269043,-0.60707 v -0.75539 q -0.0138,-0.36907 0.303535,-0.64156 l 0.507042,-0.43806 q 0.244898,-0.20005 0.524289,-0.20005 h 1.300373 q 0.120724,0 0.203507,0.0862 0.08623,0.0828 0.08623,0.2035 0,0.12418 -0.08623,0.20696 -0.08278,0.0828 -0.203507,0.0828 h -1.245185 q -0.117275,0 -0.224202,0.0931 l -0.465651,0.39667 q -0.113826,0.0966 -0.113826,0.25869 v 0.7071 q 0,0.11383 0.08968,0.19316 l 0.510491,0.43461 q 0.09658,0.0862 0.255246,0.0862 h 1.186547 q 0.117275,0 0.203507,0.0862 0.08623,0.0828 0.08623,0.20351 0,0.12072 -0.08623,0.20696 -0.08278,0.0828 -0.203507,0.0828 z"
         style="font-style:normal;font-variant:normal;font-weight:normal;font-stretch:normal;font-family:'OCR A Extended';-inkscape-font-specification:'OCR A Extended';stroke-width:0.17660242"
         id="path23" />
      <path
         d="m 34.113239,290.53561 v -3.9977 q 0,-0.12417 0.08278,-0.2104 0.08623,-0.0862 0.206956,-0.0862 0.120724,0 0.203507,0.0862 0.08623,0.0862 0.08623,0.2104 v 2.3662 l 1.559068,-1.32797 q 0.100029,-0.0828 0.217304,-0.0828 0.124174,0 0.206956,0.0897 0.08278,0.0862 0.08278,0.20695 0,0.12763 -0.08968,0.20351 l -1.214142,1.03133 1.496981,1.31417 q 0.08968,0.0724 0.08968,0.18971 0,0.11383 -0.08278,0.20696 -0.08278,0.0897 -0.203507,0.0897 -0.120724,0 -0.213854,-0.0793 l -1.545271,-1.34176 -0.303536,0.25525 v 0.87611 q 0,0.12072 -0.08623,0.20696 -0.08278,0.0828 -0.203507,0.0828 -0.120724,0 -0.206956,-0.0828 -0.08278,-0.0862 -0.08278,-0.20696 z"
         style="font-style:normal;font-variant:normal;font-weight:normal;font-stretch:normal;font-family:'OCR A Extended';-inkscape-font-specification:'OCR A Extended';stroke-width:0.17660242"
         id="path25" />
    </g>
  </g>
</svg>
