<?xml version="1.0" encoding="UTF-8" standalone="no"?>
<!-- Created with Inkscape (http://www.inkscape.org/) -->

<svg
   xmlns:dc="http://purl.org/dc/elements/1.1/"
   xmlns:cc="http://creativecommons.org/ns#"
   xmlns:rdf="http://www.w3.org/1999/02/22-rdf-syntax-ns#"
   xmlns:svg="http://www.w3.org/2000/svg"
   xmlns="http://www.w3.org/2000/svg"
   xmlns:sodipodi="http://sodipodi.sourceforge.net/DTD/sodipodi-0.dtd"
   xmlns:inkscape="http://www.inkscape.org/namespaces/inkscape"
   width="140"
   height="64"
   viewBox="0 0 37.041666 16.933334"
   version="1.1"
   id="svg8"
   inkscape:version="0.92.4 (5da689c313, 2019-01-14)"
   sodipodi:docname="client-logo-05.svg">
  <defs
     id="defs2" />
  <sodipodi:namedview
     id="base"
     pagecolor="#ffffff"
     bordercolor="#666666"
     borderopacity="1.0"
     inkscape:pageopacity="0.0"
     inkscape:pageshadow="2"
     inkscape:zoom="2.8"
     inkscape:cx="53.983379"
     inkscape:cy="20.737863"
     inkscape:document-units="px"
     inkscape:current-layer="g35"
     showgrid="false"
     units="px"
     inkscape:window-width="1366"
     inkscape:window-height="705"
     inkscape:window-x="-8"
     inkscape:window-y="-8"
     inkscape:window-maximized="1" />
  <metadata
     id="metadata5">
    <rdf:RDF>
      <cc:Work
         rdf:about="">
        <dc:format>image/svg+xml</dc:format>
        <dc:type
           rdf:resource="http://purl.org/dc/dcmitype/StillImage" />
        <dc:title />
      </cc:Work>
    </rdf:RDF>
  </metadata>
  <g
     inkscape:label="Layer 1"
     inkscape:groupmode="layer"
     id="layer1"
     transform="translate(0,-280.06665)">
    <g
       id="g35">
      <g
         id="text28"
         style="font-style:normal;font-variant:normal;font-weight:normal;font-stretch:normal;font-size:9.84532928px;line-height:1.25;font-family:'Reem Kufi';-inkscape-font-specification:'Reem Kufi';letter-spacing:0px;word-spacing:0px;fill:#000000;fill-opacity:1;stroke:none;stroke-width:0.24613321"
         aria-label="Sparkles">
        <path
           id="path9"
           style="font-style:normal;font-variant:normal;font-weight:normal;font-stretch:normal;font-family:'Reem Kufi';-inkscape-font-specification:'Reem Kufi';stroke-width:0.24613321"
           d="m 4.2728721,285.57972 q -0.3741225,-0.19691 -0.807317,-0.33474 -0.4331945,-0.13784 -0.836853,-0.13784 -0.5611837,0 -0.8860796,0.25598 -0.3248959,0.24614 -0.3248959,0.68918 0,0.31505 0.2165973,0.54149 0.2165972,0.2166 0.5611838,0.39381 0.3445865,0.16737 0.7285543,0.30521 0.4430398,0.16737 0.8565437,0.40366 0.4135038,0.23628 0.6793277,0.64979 0.2658239,0.40366 0.2658239,1.07314 0,0.57103 -0.2855146,1.03376 -0.2855145,0.45288 -0.8171623,0.72855 -0.5218025,0.26583 -1.2602022,0.26583 -0.689173,0 -1.3094287,-0.2166 Q 0.44303904,291.01434 -7.7867508e-7,290.69929 L 0.4627297,289.88213 q 0.34458652,0.26582 0.8466983,0.46273 0.5021118,0.19691 0.954997,0.19691 0.3347412,0 0.6497917,-0.1083 0.3150505,-0.11815 0.5218024,-0.36428 0.2165973,-0.24613 0.2165973,-0.64979 0,-0.33474 -0.1870613,-0.57103 -0.1870612,-0.23629 -0.4922664,-0.40366 -0.2953599,-0.16737 -0.6399464,-0.29536 -0.3347412,-0.12799 -0.6891731,-0.27567 -0.3445865,-0.15752 -0.6399464,-0.38397 -0.28551454,-0.22644 -0.4725758,-0.55133 -0.17721592,-0.33474 -0.17721592,-0.80732 0,-0.57103 0.26582389,-0.99438 0.27566922,-0.43319 0.74824503,-0.66948 0.4824211,-0.24613 1.1125222,-0.27567 0.7088637,0 1.2405115,0.17722 0.5316478,0.16737 0.9353063,0.4135 z" />
        <path
           id="path11"
           style="font-style:normal;font-variant:normal;font-weight:normal;font-stretch:normal;font-family:'Reem Kufi';-inkscape-font-specification:'Reem Kufi';stroke-width:0.24613321"
           d="m 8.5165169,291.46723 q -0.4331945,0 -0.8270077,-0.17722 Q 7.295696,291.1128 7.0495628,290.7879 v 2.55979 H 6.0551845 v -6.16318 h 0.8565437 l 0.088608,0.66948 q 0.2953598,-0.33474 0.7285543,-0.55134 0.4331945,-0.21659 0.9746876,-0.21659 0.5808745,0 1.0337596,0.27567 0.4627303,0.27566 0.7285543,0.77778 0.265824,0.49226 0.265824,1.16175 0,0.66948 -0.29536,1.16174 -0.285514,0.48243 -0.7876263,0.74825 -0.4922664,0.25598 -1.1322128,0.25598 z M 8.3196103,290.6796 q 0.3839678,0 0.6990184,-0.17721 0.3248958,-0.17722 0.5119571,-0.48243 0.1969066,-0.31505 0.1969066,-0.70886 0,-0.40366 -0.177216,-0.71871 -0.1772159,-0.31505 -0.4824211,-0.49226 -0.3052052,-0.17722 -0.6793277,-0.17722 -0.5119571,0 -0.866389,0.27567 -0.3445865,0.27567 -0.4725758,0.72855 v 0.7384 q 0.078763,0.44304 0.4331945,0.72856 0.3544318,0.28551 0.836853,0.28551 z" />
        <path
           id="path13"
           style="font-style:normal;font-variant:normal;font-weight:normal;font-stretch:normal;font-family:'Reem Kufi';-inkscape-font-specification:'Reem Kufi';stroke-width:0.24613321"
           d="m 13.66224,291.46723 q -0.580874,0 -1.05345,-0.24614 -0.472576,-0.24613 -0.748245,-0.7187 -0.275669,-0.48243 -0.275669,-1.19129 0,-0.68917 0.285514,-1.18144 0.29536,-0.50211 0.767936,-0.76793 0.472576,-0.27567 1.043605,-0.27567 0.571029,0 0.945151,0.23628 0.374123,0.22645 0.59072,0.55134 l 0.06892,-0.62025 h 0.915616 v 4.11534 h -0.994378 v -0.64979 q -0.108299,0.13784 -0.324896,0.31505 -0.216597,0.17722 -0.521803,0.30521 -0.305205,0.12799 -0.699018,0.12799 z m 0.265824,-0.81716 q 0.482421,0 0.827008,-0.25598 0.344586,-0.26583 0.452885,-0.71871 v -0.8467 q -0.118144,-0.40366 -0.482421,-0.66948 -0.354432,-0.26583 -0.827008,-0.26583 -0.354432,0 -0.649792,0.17722 -0.29536,0.16737 -0.472576,0.48242 -0.177216,0.30521 -0.177216,0.70886 0,0.39382 0.177216,0.70887 0.187062,0.31505 0.492267,0.50211 0.305205,0.17722 0.659637,0.17722 z" />
        <path
           id="path15"
           style="font-style:normal;font-variant:normal;font-weight:normal;font-stretch:normal;font-family:'Reem Kufi';-inkscape-font-specification:'Reem Kufi';stroke-width:0.24613321"
           d="m 18.651822,287.25343 0.07876,0.97468 q 0.177216,-0.35443 0.472576,-0.61041 0.295359,-0.25597 0.61041,-0.39381 0.324896,-0.13783 0.551338,-0.13783 l -0.04923,0.98453 q -0.462731,-0.0295 -0.817163,0.17722 -0.344586,0.20675 -0.541493,0.55133 -0.196906,0.34459 -0.196906,0.7384 v 1.83123 h -0.994379 v -4.11534 z" />
        <path
           id="path17"
           style="font-style:normal;font-variant:normal;font-weight:normal;font-stretch:normal;font-family:'Reem Kufi';-inkscape-font-specification:'Reem Kufi';stroke-width:0.24613321"
           d="m 21.515428,291.36877 v -7.64982 h 0.994378 v 5.09988 l 2.097055,-1.65401 0.600565,0.53165 -1.506335,1.20113 1.703242,2.47117 h -1.161749 l -1.220821,-1.92968 -0.511957,0.40366 v 1.52602 z" />
        <path
           id="path19"
           style="font-style:normal;font-variant:normal;font-weight:normal;font-stretch:normal;font-family:'Reem Kufi';-inkscape-font-specification:'Reem Kufi';stroke-width:0.24613321"
           d="m 26.49578,283.71895 h 0.994378 v 7.64982 H 26.49578 Z" />
        <path
           id="path21"
           style="font-style:normal;font-variant:normal;font-weight:normal;font-stretch:normal;font-family:'Reem Kufi';-inkscape-font-specification:'Reem Kufi';stroke-width:0.24613321"
           d="m 30.982943,291.46723 q -0.708864,0 -1.220821,-0.27567 -0.511957,-0.28552 -0.787627,-0.77778 -0.275669,-0.50211 -0.275669,-1.13222 0,-0.61041 0.305205,-1.10267 0.315051,-0.50211 0.836853,-0.79747 0.521803,-0.29536 1.161749,-0.29536 0.827008,0 1.368501,0.48242 0.551339,0.47257 0.7384,1.33896 l -3.219423,1.11252 q 0.177216,0.28552 0.462731,0.44304 0.295359,0.15753 0.649791,0.15753 0.265824,0 0.511957,-0.0886 0.246134,-0.0886 0.462731,-0.25598 l 0.452885,0.7384 q -0.31505,0.20675 -0.699018,0.33474 -0.383968,0.11815 -0.748245,0.11815 z m -1.299584,-2.24474 q 0,0.1083 0.0098,0.20675 l 2.293961,-0.83685 q -0.127989,-0.28551 -0.383968,-0.50211 -0.246133,-0.2166 -0.669482,-0.2166 -0.551338,0 -0.90577,0.38397 -0.344587,0.37412 -0.344587,0.96484 z" />
        <path
           id="path23"
           style="font-style:normal;font-variant:normal;font-weight:normal;font-stretch:normal;font-family:'Reem Kufi';-inkscape-font-specification:'Reem Kufi';stroke-width:0.24613321"
           d="m 35.417189,291.45738 q -0.452886,0 -0.866389,-0.15752 -0.413504,-0.16737 -0.699019,-0.47258 l 0.423349,-0.57103 q 0.255979,0.24614 0.531648,0.37412 0.275669,0.12799 0.531648,0.12799 0.285514,0 0.502112,-0.10829 0.216597,-0.11815 0.216597,-0.38397 0,-0.2166 -0.14768,-0.33474 -0.137835,-0.11815 -0.354432,-0.19691 -0.216597,-0.0788 -0.46273,-0.14768 -1.053451,-0.34459 -1.053451,-1.21098 0,-0.31505 0.157526,-0.61041 0.16737,-0.29536 0.492266,-0.47257 0.334741,-0.18706 0.836853,-0.18706 0.433195,0 0.777781,0.1083 0.344587,0.0985 0.639947,0.34458 l -0.383968,0.60057 q -0.177216,-0.17722 -0.423349,-0.26583 -0.236288,-0.0985 -0.433195,-0.1083 -0.265824,0 -0.46273,0.12799 -0.196907,0.11815 -0.196907,0.3249 0,0.2166 0.137835,0.33474 0.137834,0.11814 0.354431,0.19691 0.226443,0.0689 0.452886,0.14768 0.452885,0.14768 0.748245,0.40366 0.305205,0.25597 0.305205,0.74824 0,0.37412 -0.177216,0.68917 -0.177216,0.31505 -0.541493,0.51196 -0.354432,0.18706 -0.90577,0.18706 z" />
      </g>
    </g>
  </g>
</svg>
