<?xml version="1.0" encoding="UTF-8" standalone="no"?>
<!-- Created with Inkscape (http://www.inkscape.org/) -->

<svg
   xmlns:dc="http://purl.org/dc/elements/1.1/"
   xmlns:cc="http://creativecommons.org/ns#"
   xmlns:rdf="http://www.w3.org/1999/02/22-rdf-syntax-ns#"
   xmlns:svg="http://www.w3.org/2000/svg"
   xmlns="http://www.w3.org/2000/svg"
   xmlns:sodipodi="http://sodipodi.sourceforge.net/DTD/sodipodi-0.dtd"
   xmlns:inkscape="http://www.inkscape.org/namespaces/inkscape"
   width="140"
   height="64"
   viewBox="0 0 37.041666 16.933334"
   version="1.1"
   id="svg8"
   inkscape:version="0.92.4 (5da689c313, 2019-01-14)"
   sodipodi:docname="client-logo-08.svg">
  <defs
     id="defs2" />
  <sodipodi:namedview
     id="base"
     pagecolor="#ffffff"
     bordercolor="#666666"
     borderopacity="1.0"
     inkscape:pageopacity="0.0"
     inkscape:pageshadow="2"
     inkscape:zoom="2.8"
     inkscape:cx="53.983379"
     inkscape:cy="20.737863"
     inkscape:document-units="px"
     inkscape:current-layer="layer1"
     showgrid="false"
     units="px"
     inkscape:window-width="1366"
     inkscape:window-height="705"
     inkscape:window-x="-8"
     inkscape:window-y="-8"
     inkscape:window-maximized="1" />
  <metadata
     id="metadata5">
    <rdf:RDF>
      <cc:Work
         rdf:about="">
        <dc:format>image/svg+xml</dc:format>
        <dc:type
           rdf:resource="http://purl.org/dc/dcmitype/StillImage" />
        <dc:title />
      </cc:Work>
    </rdf:RDF>
  </metadata>
  <g
     inkscape:label="Layer 1"
     inkscape:groupmode="layer"
     id="layer1"
     transform="translate(0,-280.06665)">
    <g
       aria-label="Node Tech"
       style="font-style:normal;font-variant:normal;font-weight:normal;font-stretch:normal;font-size:7.81310463px;line-height:1.25;font-family:'Franklin Gothic Heavy';-inkscape-font-specification:'Franklin Gothic Heavy, ';letter-spacing:0px;word-spacing:0px;fill:#000000;fill-opacity:1;stroke:none;stroke-width:0.19532761"
       id="text40">
      <path
         d="M 4.4520954,291.09698 H 3.1511829 l -1.4268072,-2.30044 q -0.2746794,-0.44253 -0.5531739,-1.07582 0.1258948,0.50358 0.1258948,0.85455 v 2.52171 H -8.6892396e-7 v -5.20746 H 1.5107362 l 1.2131676,1.9075 q 0.3624243,0.56843 0.5493589,0.99952 -0.1220798,-0.66762 -0.1220798,-1.36576 v -1.54126 h 1.3009125 z"
         style="font-style:normal;font-variant:normal;font-weight:normal;font-stretch:normal;font-family:'Franklin Gothic Heavy';-inkscape-font-specification:'Franklin Gothic Heavy, ';stroke-width:0.19532761"
         id="path9" />
      <path
         d="m 7.233225,291.1771 q -0.9651931,0 -1.533627,-0.59895 -0.5684339,-0.60277 -0.5684339,-1.41155 0,-0.86982 0.5913238,-1.4497 0.5951389,-0.57988 1.545072,-0.57988 0.9575631,0 1.537442,0.57225 0.5836938,0.57225 0.5836938,1.43444 0,0.86982 -0.5913238,1.45351 -0.5875088,0.57988 -1.5641469,0.57988 z m 0.02289,-0.92323 q 0.3547943,0 0.4310942,-0.36624 0.080115,-0.37005 0.080115,-0.77063 0,-0.54554 -0.1106348,-0.78588 -0.1106347,-0.24035 -0.3967592,-0.24035 -0.2632345,0 -0.3853142,0.24798 -0.1220798,0.24797 -0.1220798,0.8164 0,0.66763 0.1258948,0.88508 0.1258947,0.21364 0.3776842,0.21364 z"
         style="font-style:normal;font-variant:normal;font-weight:normal;font-stretch:normal;font-family:'Franklin Gothic Heavy';-inkscape-font-specification:'Franklin Gothic Heavy, ';stroke-width:0.19532761"
         id="path11" />
      <path
         d="M 13.760677,291.09698 H 12.33387 v -0.51502 q -0.316644,0.59514 -1.045308,0.59514 -0.671438,0 -1.091088,-0.52265 -0.4158337,-0.52647 -0.4158337,-1.526 0,-0.93467 0.4196487,-1.48403 0.41965,-0.54936 1.110163,-0.54936 0.576064,0 0.949933,0.43872 v -1.64426 h 1.499292 z m -1.499292,-2.495 q 0,-0.52265 -0.431094,-0.52265 -0.301384,0 -0.396759,0.3319 -0.09156,0.3319 -0.09156,0.81259 0,0.94231 0.480689,0.94231 0.18312,0 0.309015,-0.14879 0.129709,-0.14878 0.129709,-0.45398 z"
         style="font-style:normal;font-variant:normal;font-weight:normal;font-stretch:normal;font-family:'Franklin Gothic Heavy';-inkscape-font-specification:'Franklin Gothic Heavy, ';stroke-width:0.19532761"
         id="path13" />
      <path
         d="m 17.129315,289.70451 1.419177,0.0954 q -0.125894,0.57225 -0.644733,0.97664 -0.515024,0.40057 -1.396288,0.40057 -0.980453,0 -1.564147,-0.56462 -0.583693,-0.56843 -0.583693,-1.40773 0,-0.86982 0.576063,-1.46877 0.576064,-0.59896 1.537442,-0.59896 0.930859,0 1.503108,0.56462 0.576063,0.56462 0.576063,1.53744 0,0.0801 -0.0038,0.22127 h -2.59801 q 0.0076,0.36624 0.12971,0.54555 0.12208,0.17549 0.465429,0.17549 0.495949,0 0.583694,-0.47688 z m -0.09919,-1.00716 q -0.0038,-0.39294 -0.160229,-0.52646 -0.1526,-0.13734 -0.3815,-0.13734 -0.541729,0 -0.541729,0.6638 z"
         style="font-style:normal;font-variant:normal;font-weight:normal;font-stretch:normal;font-family:'Franklin Gothic Heavy';-inkscape-font-specification:'Franklin Gothic Heavy, ';stroke-width:0.19532761"
         id="path15" />
      <path
         d="m 23.290528,287.13702 v 3.95996 h -1.514552 v -3.95996 h -1.079643 v -1.2475 h 3.673838 v 1.2475 z"
         style="font-style:normal;font-variant:normal;font-weight:normal;font-stretch:normal;font-family:'Franklin Gothic Heavy';-inkscape-font-specification:'Franklin Gothic Heavy, ';stroke-width:0.19532761"
         id="path17" />
      <path
         d="m 27.029221,289.70451 1.419178,0.0954 q -0.125895,0.57225 -0.644734,0.97664 -0.515024,0.40057 -1.396287,0.40057 -0.980454,0 -1.564147,-0.56462 -0.583694,-0.56843 -0.583694,-1.40773 0,-0.86982 0.576064,-1.46877 0.576064,-0.59896 1.537442,-0.59896 0.930858,0 1.503107,0.56462 0.576064,0.56462 0.576064,1.53744 0,0.0801 -0.0038,0.22127 h -2.59801 q 0.0076,0.36624 0.129709,0.54555 0.12208,0.17549 0.465429,0.17549 0.49595,0 0.583694,-0.47688 z m -0.09919,-1.00716 q -0.0038,-0.39294 -0.16023,-0.52646 -0.1526,-0.13734 -0.381499,-0.13734 -0.541729,0 -0.541729,0.6638 z"
         style="font-style:normal;font-variant:normal;font-weight:normal;font-stretch:normal;font-family:'Franklin Gothic Heavy';-inkscape-font-specification:'Franklin Gothic Heavy, ';stroke-width:0.19532761"
         id="path19" />
      <path
         d="m 31.385941,289.53284 1.297097,0.11063 q -0.09156,0.67907 -0.572248,1.10635 -0.476874,0.42728 -1.270393,0.42728 -0.888893,0 -1.445882,-0.55699 -0.553174,-0.5608 -0.553174,-1.43444 0,-0.8927 0.549359,-1.46877 0.553174,-0.57988 1.434437,-0.57988 0.782074,0 1.274208,0.43873 0.492134,0.43491 0.564619,1.10253 l -1.331433,0.11063 q -0.08393,-0.61421 -0.465429,-0.61421 -0.244159,0 -0.358609,0.22509 -0.110635,0.22126 -0.110635,0.77444 0,0.47687 0.110635,0.70577 0.11445,0.2289 0.392944,0.2289 0.408204,0 0.484504,-0.57606 z"
         style="font-style:normal;font-variant:normal;font-weight:normal;font-stretch:normal;font-family:'Franklin Gothic Heavy';-inkscape-font-specification:'Franklin Gothic Heavy, ';stroke-width:0.19532761"
         id="path21" />
      <path
         d="m 37.041668,291.09698 h -1.518367 v -2.33477 q 0,-0.32046 -0.07248,-0.43872 -0.06867,-0.12208 -0.270864,-0.12208 -0.156415,0 -0.27468,0.0954 -0.11445,0.0916 -0.133525,0.19075 -0.01908,0.0992 -0.01908,0.41583 v 2.19362 H 33.23049 v -5.20746 h 1.522182 v 1.78542 q 0.41202,-0.53792 1.075828,-0.53792 0.33572,0 0.587509,0.11827 0.255605,0.11445 0.392944,0.29757 0.13734,0.18312 0.18312,0.35479 0.0496,0.17168 0.0496,0.66381 z"
         style="font-style:normal;font-variant:normal;font-weight:normal;font-stretch:normal;font-family:'Franklin Gothic Heavy';-inkscape-font-specification:'Franklin Gothic Heavy, ';stroke-width:0.19532761"
         id="path23" />
    </g>
  </g>
</svg>
