<?xml version="1.0" encoding="UTF-8" standalone="no"?>
<!-- Created with Inkscape (http://www.inkscape.org/) -->

<svg
   xmlns:dc="http://purl.org/dc/elements/1.1/"
   xmlns:cc="http://creativecommons.org/ns#"
   xmlns:rdf="http://www.w3.org/1999/02/22-rdf-syntax-ns#"
   xmlns:svg="http://www.w3.org/2000/svg"
   xmlns="http://www.w3.org/2000/svg"
   xmlns:sodipodi="http://sodipodi.sourceforge.net/DTD/sodipodi-0.dtd"
   xmlns:inkscape="http://www.inkscape.org/namespaces/inkscape"
   width="140"
   height="64"
   viewBox="0 0 37.041666 16.933334"
   version="1.1"
   id="svg8"
   inkscape:version="0.92.4 (5da689c313, 2019-01-14)"
   sodipodi:docname="client-logo-03.svg">
  <defs
     id="defs2" />
  <sodipodi:namedview
     id="base"
     pagecolor="#ffffff"
     bordercolor="#666666"
     borderopacity="1.0"
     inkscape:pageopacity="0.0"
     inkscape:pageshadow="2"
     inkscape:zoom="2.8"
     inkscape:cx="53.983379"
     inkscape:cy="20.737863"
     inkscape:document-units="px"
     inkscape:current-layer="layer1"
     showgrid="false"
     units="px"
     inkscape:window-width="1366"
     inkscape:window-height="705"
     inkscape:window-x="-8"
     inkscape:window-y="-8"
     inkscape:window-maximized="1" />
  <metadata
     id="metadata5">
    <rdf:RDF>
      <cc:Work
         rdf:about="">
        <dc:format>image/svg+xml</dc:format>
        <dc:type
           rdf:resource="http://purl.org/dc/dcmitype/StillImage" />
        <dc:title />
      </cc:Work>
    </rdf:RDF>
  </metadata>
  <g
     inkscape:label="Layer 1"
     inkscape:groupmode="layer"
     id="layer1"
     transform="translate(0,-280.06665)">
    <g
       id="g38">
      <g
         id="text20"
         style="font-style:normal;font-variant:normal;font-weight:bold;font-stretch:normal;font-size:7.6051178px;line-height:1.25;font-family:Alef;-inkscape-font-specification:'Alef Bold';letter-spacing:0px;word-spacing:0px;fill:#000000;fill-opacity:1;stroke:none;stroke-width:0.19012794"
         aria-label="Life Paths">
        <path
           id="path9"
           style="font-style:normal;font-variant:normal;font-weight:bold;font-stretch:normal;font-family:Alef;-inkscape-font-specification:'Alef Bold';stroke-width:0.19012794"
           d="m 1.0360493,286.02116 v 4.57867 h 2.0832379 v 0.76125 H 5.6624413e-7 v -5.33992 z" />
        <path
           id="path11"
           style="font-style:normal;font-variant:normal;font-weight:bold;font-stretch:normal;font-family:Alef;-inkscape-font-specification:'Alef Bold';stroke-width:0.19012794"
           d="m 4.6603632,285.6164 q 0.1262568,0 0.2376599,0.0483 0.1151166,0.0483 0.1968122,0.13369 0.085409,0.0817 0.1336837,0.19681 0.048275,0.1114 0.048275,0.23766 0,0.12997 -0.048275,0.24137 -0.048275,0.1114 -0.1336837,0.19681 -0.081696,0.0854 -0.1968122,0.13369 -0.1114031,0.0483 -0.2376599,0.0483 -0.1299703,0 -0.2413734,-0.0483 -0.1114031,-0.0483 -0.1968121,-0.13369 -0.085409,-0.0854 -0.1336837,-0.19681 -0.048275,-0.1114 -0.048275,-0.24137 0,-0.12626 0.048275,-0.23766 0.048275,-0.11512 0.1336837,-0.19681 0.085409,-0.0854 0.1968121,-0.13369 0.1114031,-0.0483 0.2413734,-0.0483 z m 0.5050273,1.88271 v 3.86197 H 4.147909 v -3.86197 z" />
        <path
           id="path13"
           style="font-style:normal;font-variant:normal;font-weight:bold;font-stretch:normal;font-family:Alef;-inkscape-font-specification:'Alef Bold';stroke-width:0.19012794"
           d="m 6.8661442,287.358 q 0,-0.38991 0.063128,-0.67213 0.066842,-0.28222 0.2190928,-0.46047 0.1559643,-0.18196 0.4121914,-0.26737 0.2599406,-0.0891 0.646138,-0.0891 0.3007883,0 0.6535648,0.0483 0.3527764,0.0483 0.7501141,0.12997 l -0.1596777,0.70555 q -0.3342093,-0.0631 -0.5792961,-0.10026 -0.2413734,-0.0408 -0.4270452,-0.0408 -0.1819584,0 -0.2933615,0.0334 -0.1114031,0.0297 -0.1708181,0.11512 -0.059415,0.0854 -0.077982,0.23766 -0.018567,0.15225 -0.018567,0.39362 v 0.10769 h 1.2402878 v 0.74269 H 7.8836258 v 2.3766 h 1.2402878 v 0.74268 H 6.2200063 v -0.74268 h 0.6461379 v -2.3766 H 6.2200063 v -0.74269 h 0.6461379 z" />
        <path
           id="path15"
           style="font-style:normal;font-variant:normal;font-weight:bold;font-stretch:normal;font-family:Alef;-inkscape-font-specification:'Alef Bold';stroke-width:0.19012794"
           d="m 13.4315,291.18655 q -0.152251,0.0631 -0.334209,0.11141 -0.178245,0.0483 -0.375057,0.0817 -0.196812,0.0334 -0.401051,0.052 -0.200526,0.0186 -0.393624,0.0186 -0.976634,0 -1.477948,-0.4679 -0.4976006,-0.4716 -0.4976006,-1.44081 0,-0.43076 0.1002626,-0.81696 0.100263,-0.38619 0.323069,-0.67584 0.22652,-0.29336 0.590437,-0.46418 0.36763,-0.17082 0.898651,-0.17082 0.928359,0 1.385112,0.49389 0.456753,0.49017 0.456753,1.50023 v 0.29336 h -2.74423 q 0.0074,0.25251 0.05941,0.44561 0.05199,0.1931 0.170818,0.32678 0.122544,0.12997 0.319356,0.20053 0.196812,0.0668 0.493887,0.0668 0.25994,0 0.560729,-0.0631 0.300788,-0.0668 0.62757,-0.18938 z m -0.742687,-2.14636 q -0.02599,-0.91722 -0.824383,-0.91722 -0.412191,0 -0.627571,0.23766 -0.211665,0.23766 -0.25994,0.67956 z" />
        <path
           id="path17"
           style="font-style:normal;font-variant:normal;font-weight:bold;font-stretch:normal;font-family:Alef;-inkscape-font-specification:'Alef Bold';stroke-width:0.19012794"
           d="m 18.945953,286.02116 q 0.38991,0 0.694412,0.10769 0.308215,0.10398 0.519881,0.30822 0.211666,0.20424 0.323069,0.50502 0.111403,0.30079 0.111403,0.6907 0,0.42334 -0.137397,0.74269 -0.137397,0.31564 -0.393624,0.52731 -0.256227,0.21166 -0.620144,0.31935 -0.363917,0.10769 -0.813242,0.10769 -0.207953,0 -0.393625,-0.0111 -0.181958,-0.0149 -0.323069,-0.0297 v 2.07209 h -1.036048 v -5.33992 z m -1.032336,2.55856 q 0.11883,0.0186 0.233947,0.0297 0.11883,0.007 0.230233,0.007 0.285934,0 0.501314,-0.0483 0.219093,-0.0483 0.363917,-0.15968 0.148537,-0.1114 0.222806,-0.28965 0.07427,-0.17824 0.07427,-0.44189 0,-0.25995 -0.0557,-0.43819 -0.0557,-0.18196 -0.178245,-0.29336 -0.122543,-0.11141 -0.315642,-0.15968 -0.193099,-0.052 -0.467893,-0.052 h -0.609004 z" />
        <path
           id="path19"
           style="font-style:normal;font-variant:normal;font-weight:bold;font-stretch:normal;font-family:Alef;-inkscape-font-specification:'Alef Bold';stroke-width:0.19012794"
           d="m 21.712464,287.6885 q 0.137397,-0.0557 0.311928,-0.10398 0.178245,-0.0483 0.375057,-0.0854 0.200526,-0.0408 0.412192,-0.0631 0.215379,-0.0223 0.434472,-0.0223 0.308215,0 0.575582,0.0483 0.271081,0.0483 0.449326,0.15967 0.178245,0.11141 0.278508,0.30451 0.100263,0.18938 0.100263,0.47903 v 1.50765 q 0,0.25994 0.0037,0.46418 0.0037,0.20053 0.01485,0.39363 0.0074,0.0706 0.01485,0.12997 0.0074,0.0557 0.01485,0.1114 0.01114,0.052 0.02228,0.1114 0.01485,0.0594 0.03342,0.12997 -0.230233,0.052 -0.460466,0.10027 -0.22652,0.0483 -0.460466,0.0928 -0.04085,-0.10397 -0.06684,-0.21166 -0.02228,-0.11141 -0.04085,-0.25252 h -0.0557 q -0.129971,0.13369 -0.259941,0.22281 -0.12997,0.0891 -0.271081,0.14482 -0.14111,0.0557 -0.293361,0.078 -0.152251,0.0223 -0.319356,0.0223 -0.256227,0 -0.47532,-0.0631 -0.219092,-0.0594 -0.382484,-0.18567 -0.159677,-0.12626 -0.252513,-0.31936 -0.08912,-0.19681 -0.08912,-0.46047 0,-0.2228 0.04456,-0.39733 0.04828,-0.17453 0.133684,-0.31193 0.08541,-0.1374 0.204239,-0.24138 0.11883,-0.10397 0.263654,-0.18195 0.289648,-0.15597 0.646138,-0.21167 0.35649,-0.0594 0.727834,-0.0594 h 0.319355 v -0.48275 q 0,-0.1374 -0.04456,-0.21538 -0.04085,-0.0817 -0.115117,-0.12254 -0.07056,-0.0409 -0.167104,-0.052 -0.09655,-0.0149 -0.207953,-0.0149 -0.300788,0 -0.609003,0.078 -0.304502,0.0743 -0.58301,0.18567 z m 1.953267,1.87528 h -0.07427 q -0.263654,0.004 -0.505027,0.0408 -0.23766,0.0334 -0.419618,0.11883 -0.181959,0.0854 -0.293362,0.22652 -0.107689,0.1374 -0.107689,0.34906 0,0.23395 0.133683,0.3602 0.137397,0.12626 0.382484,0.12626 0.115117,0 0.23766,-0.0297 0.122544,-0.0334 0.241374,-0.0891 0.11883,-0.0594 0.222806,-0.14482 0.103976,-0.0854 0.181958,-0.19681 z" />
        <path
           id="path21"
           style="font-style:normal;font-variant:normal;font-weight:bold;font-stretch:normal;font-family:Alef;-inkscape-font-specification:'Alef Bold';stroke-width:0.19012794"
           d="m 27.223202,286.61531 v 0.8838 h 1.299703 v 0.74269 h -1.299703 v 1.853 q 0,0.18196 0.01485,0.30079 0.01857,0.11883 0.06313,0.18939 0.04456,0.0668 0.122544,0.0966 0.07798,0.026 0.200525,0.026 0.11883,0 0.274795,-0.026 0.159677,-0.026 0.375057,-0.0743 0.02228,0.0668 0.04827,0.15596 0.02971,0.0891 0.0557,0.18567 0.02971,0.0928 0.0557,0.18196 0.02599,0.0854 0.04828,0.15225 -0.103976,0.0371 -0.245087,0.0706 -0.137397,0.0297 -0.289648,0.052 -0.152251,0.0223 -0.308215,0.0334 -0.155964,0.0111 -0.293361,0.0111 -0.129971,0 -0.256228,-0.0111 -0.126256,-0.0111 -0.241373,-0.0409 -0.111403,-0.026 -0.207952,-0.0706 -0.09655,-0.0446 -0.167105,-0.11511 -0.163391,-0.15968 -0.215379,-0.43819 -0.05199,-0.28222 -0.05199,-0.71669 v -1.81587 h -0.557016 v -0.74269 h 0.557016 v -0.8838 z" />
        <path
           id="path23"
           style="font-style:normal;font-variant:normal;font-weight:bold;font-stretch:normal;font-family:Alef;-inkscape-font-specification:'Alef Bold';stroke-width:0.19012794"
           d="m 30.476173,286.01374 v 2.14636 h 0.02599 q 0.115117,-0.17082 0.23766,-0.30821 0.122543,-0.1374 0.271081,-0.23395 0.152251,-0.10026 0.334209,-0.15225 0.181958,-0.052 0.412191,-0.052 0.441899,0 0.709267,0.17825 0.271081,0.17453 0.401051,0.53473 0.07055,0.1931 0.100263,0.43447 0.03342,0.24138 0.03342,0.54216 v 2.25777 h -1.017482 v -2.55113 q 0,-0.30079 -0.14111,-0.47532 -0.141111,-0.17824 -0.404765,-0.17824 -0.148538,0 -0.289648,0.0743 -0.141111,0.0743 -0.267368,0.18567 -0.126256,0.1114 -0.230233,0.24509 -0.103976,0.13368 -0.174531,0.25622 v 2.44344 h -1.021195 v -5.34734 z" />
        <path
           id="path25"
           style="font-style:normal;font-variant:normal;font-weight:bold;font-stretch:normal;font-family:Alef;-inkscape-font-specification:'Alef Bold';stroke-width:0.19012794"
           d="m 35.485599,287.41741 q 0.35649,0 0.698126,0.0631 0.341636,0.0631 0.597863,0.16711 -0.05199,0.14854 -0.122543,0.30079 -0.06684,0.15225 -0.137397,0.28964 -0.189385,-0.0631 -0.441899,-0.10769 -0.2488,-0.0446 -0.493887,-0.0446 -0.141111,0 -0.271081,0.0223 -0.126257,0.0186 -0.222806,0.0631 -0.09284,0.0446 -0.148538,0.11883 -0.0557,0.0706 -0.0557,0.17453 0,0.14483 0.07056,0.23024 0.07427,0.0817 0.193099,0.13368 0.122543,0.052 0.282221,0.0854 0.159678,0.0334 0.334209,0.0743 0.271081,0.0631 0.505028,0.15968 0.237659,0.0966 0.408478,0.2488 0.174531,0.14853 0.267367,0.36763 0.09655,0.21538 0.09284,0.51988 -0.0074,0.32678 -0.155964,0.54959 -0.144824,0.2228 -0.386198,0.3602 -0.23766,0.1374 -0.545875,0.19681 -0.304502,0.0594 -0.623857,0.0594 -0.211666,0 -0.423332,-0.0223 -0.211666,-0.0223 -0.404765,-0.0668 -0.193098,-0.0408 -0.360203,-0.0966 -0.167105,-0.0594 -0.293361,-0.12997 0.06313,-0.14482 0.14111,-0.30078 0.07798,-0.15597 0.152251,-0.28965 0.103976,0.0446 0.23766,0.0891 0.137397,0.0409 0.285935,0.0743 0.15225,0.0297 0.308215,0.052 0.159678,0.0186 0.311928,0.0186 0.155965,0 0.297075,-0.026 0.141111,-0.026 0.245087,-0.0817 0.10769,-0.0594 0.167105,-0.15225 0.06313,-0.0965 0.06313,-0.23394 0,-0.15597 -0.07427,-0.2488 -0.07056,-0.0928 -0.193099,-0.14854 -0.122544,-0.0557 -0.282221,-0.0891 -0.159678,-0.0334 -0.330496,-0.0668 -0.259941,-0.052 -0.493887,-0.14854 -0.233947,-0.0966 -0.408478,-0.2488 -0.174532,-0.15225 -0.278508,-0.36763 -0.100263,-0.2191 -0.09284,-0.51246 0.0037,-0.28964 0.141111,-0.48646 0.137397,-0.20052 0.35649,-0.31935 0.219092,-0.12255 0.501314,-0.17453 0.282221,-0.0557 0.583009,-0.0557 z" />
      </g>
    </g>
  </g>
</svg>
